{
  "source": "C:\\Users\\Peter\\Desktop\\stuff\\MIUN\\quantitative_research\\video_compression\\videos\\UVG\\Jockey_1920x1080_120fps_420_8bit_YUV.y4m",
  "output": "C:\\Users\\Peter\\Desktop\\stuff\\MIUN\\quantitative_research\\video_compression\\compressed_videos\\UVG\\av1\\2.5\\Jockey_1920x1080_120fps_420_8bit_YUV_av1.mkv",
  "codec": "av1",
  "ok": "[yuv4mpegpipe @ 00000230ba6f5380] Stream #0: not enough frames to estimate rate; consider increasing probesize\nInput #0, yuv4mpegpipe, from 'C:\\Users\\Peter\\Desktop\\stuff\\MIUN\\quantitative_research\\video_compression\\videos\\UVG\\Jockey_1920x1080_120fps_420_8bit_YUV.y4m':\n  Duration: 00:00:05.00, start: 0.000000, bitrate: 2985989 kb/s\n  Stream #0:0: Video: rawvideo (I420 / 0x30323449), yuv420p(progressive), 1920x1080, 120 fps, 120 tbr, 120 tbn\n[out#0/matroska @ 00000230ba6f90c0] Codec AVOption b:a (set bitrate (in bits/s)) has not been used for any stream. The most likely reason is either wrong type (e.g. a video option with no video streams) or that it is a private option of some decoder which was not actually used for any stream.\nStream mapping:\n  Stream #0:0 -> #0:0 (rawvideo (native) -> av1 (libsvtav1))\nPress [q] to stop, [?] for help\nSvt[info]: -------------------------------------------\nSvt[info]: SVT [version]:\tSVT-AV1 Encoder Lib v3.1.0-19-g6ecfe8ec\nSvt[info]: SVT [build]  :\tGCC 15.2.0\t 64 bit\nSvt[info]: LIB Build date: Aug 17 2025 11:37:13\nSvt[info]: -------------------------------------------\n[libsvtav1 @ 00000230ba6fc1c0] Specified chroma sample location center is unsupported on the AV1 bit stream level. Usage of a container that allows passing this information - such as Matroska - is recommended.\nSvt[info]: Level of Parallelism: 5\nSvt[info]: Number of PPCS 93\nSvt[info]: [asm level on system : up to avx2]\nSvt[info]: [asm level selected : up to avx2]\nSvt[info]: -------------------------------------------\nSvt[info]: SVT [config]: main profile\ttier (auto)\tlevel (auto)\nSvt[info]: SVT [config]: width / height / fps numerator / fps denominator \t\t: 1920 / 1080 / 120 / 1\nSvt[info]: SVT [config]: bit-depth / color format \t\t\t\t\t: 8 / YUV420\nSvt[info]: SVT [config]: preset / tune / pred struct \t\t\t\t\t: 4 / PSNR / random access\nSvt[info]: SVT [config]: gop size / mini-gop size / key-frame type \t\t\t: 641 / 16 / key frame\nSvt[info]: SVT [config]: BRC mode / target bitrate (kbps)\t\t\t\t: VBR / 2500 \nSvt[info]: SVT [config]: AQ mode / Variance Boost \t\t\t\t\t: 2 / 0\nSvt[info]: SVT [config]: sharpness / luminance-based QP bias \t\t\t\t: 0 / 0\nSvt[info]: SVT [config]: QP scale compress strength \t\t\t\t\t: 0\nSvt[info]: -------------------------------------------\nOutput #0, matroska, to 'C:\\Users\\Peter\\Desktop\\stuff\\MIUN\\quantitative_research\\video_compression\\compressed_videos\\UVG\\av1\\2.5\\Jockey_1920x1080_120fps_420_8bit_YUV_av1.mkv':\n  Metadata:\n    encoder         : Lavf62.3.100\n  Stream #0:0: Video: av1 (AV01 / 0x31305641), yuv420p(tv, progressive), 1920x1080, q=2-31, 2500 kb/s, 120 fps, 1k tbn\n    Metadata:\n      encoder         : Lavc62.11.100 libsvtav1\n    Side data:\n      cpb: bitrate max/min/avg: 0/0/2500000 buffer size: 2500000 vbv_delay: N/A\nframe=    0 fps=0.0 q=0.0 size=       0KiB time=N/A bitrate=N/A speed=N/A elapsed=0:00:04.06    \nframe=    0 fps=0.0 q=0.0 size=       0KiB time=N/A bitrate=N/A speed=N/A elapsed=0:00:04.93    \nframe=    0 fps=0.0 q=0.0 size=       0KiB time=N/A bitrate=N/A speed=N/A elapsed=0:00:05.49    \nframe=    0 fps=0.0 q=0.0 size=       0KiB time=N/A bitrate=N/A speed=N/A elapsed=0:00:06.04    \nframe=    0 fps=0.0 q=0.0 size=       0KiB time=N/A bitrate=N/A speed=N/A elapsed=0:00:06.59    \nframe=    0 fps=0.0 q=0.0 size=       0KiB time=N/A bitrate=N/A speed=N/A elapsed=0:00:07.16    \nframe=    0 fps=0.0 q=0.0 size=       0KiB time=N/A bitrate=N/A speed=N/A elapsed=0:00:07.73    \nframe=    0 fps=0.0 q=0.0 size=       0KiB time=N/A bitrate=N/A speed=N/A elapsed=0:00:08.30    \nframe=    0 fps=0.0 q=0.0 size=       0KiB time=N/A bitrate=N/A speed=N/A elapsed=0:00:08.87    \nframe=    0 fps=0.0 q=0.0 size=       0KiB time=N/A bitrate=N/A speed=N/A elapsed=0:00:09.44    \nframe=    0 fps=0.0 q=0.0 size=       0KiB time=N/A bitrate=N/A speed=N/A elapsed=0:00:10.00    \nframe=    0 fps=0.0 q=0.0 size=       0KiB time=N/A bitrate=N/A speed=N/A elapsed=0:00:10.56    \nframe=    0 fps=0.0 q=0.0 size=       0KiB time=N/A bitrate=N/A speed=N/A elapsed=0:00:11.14    \nframe=    0 fps=0.0 q=0.0 size=       0KiB time=N/A bitrate=N/A speed=N/A elapsed=0:00:11.73    \nframe=    0 fps=0.0 q=0.0 size=       0KiB time=N/A bitrate=N/A speed=N/A elapsed=0:00:12.32    \nframe=    0 fps=0.0 q=0.0 size=       0KiB time=N/A bitrate=N/A speed=N/A elapsed=0:00:12.88    \nframe=    0 fps=0.0 q=0.0 size=       0KiB time=N/A bitrate=N/A speed=N/A elapsed=0:00:13.44    \nframe=    0 fps=0.0 q=0.0 size=       0KiB time=N/A bitrate=N/A speed=N/A elapsed=0:00:14.02    \nframe=    0 fps=0.0 q=0.0 size=       0KiB time=N/A bitrate=N/A speed=N/A elapsed=0:00:14.57    \nframe=    0 fps=0.0 q=0.0 size=       0KiB time=N/A bitrate=N/A speed=N/A elapsed=0:00:15.14    \nframe=    0 fps=0.0 q=0.0 size=       0KiB time=N/A bitrate=N/A speed=N/A elapsed=0:00:15.71    \nframe=    0 fps=0.0 q=0.0 size=       0KiB time=N/A bitrate=N/A speed=N/A elapsed=0:00:16.26    \nframe=    0 fps=0.0 q=0.0 size=       0KiB time=N/A bitrate=N/A speed=N/A elapsed=0:00:16.84    \nframe=    0 fps=0.0 q=0.0 size=       0KiB time=N/A bitrate=N/A speed=N/A elapsed=0:00:17.42    \nframe=    0 fps=0.0 q=0.0 size=       0KiB time=N/A bitrate=N/A speed=N/A elapsed=0:00:17.98    \nframe=    0 fps=0.0 q=0.0 size=       0KiB time=N/A bitrate=N/A speed=N/A elapsed=0:00:18.53    \nframe=    0 fps=0.0 q=0.0 size=       0KiB time=N/A bitrate=N/A speed=N/A elapsed=0:00:19.09    \nframe=    0 fps=0.0 q=0.0 size=       0KiB time=N/A bitrate=N/A speed=N/A elapsed=0:00:19.66    \nframe=    0 fps=0.0 q=0.0 size=       0KiB time=N/A bitrate=N/A speed=N/A elapsed=0:00:20.24    \nframe=    0 fps=0.0 q=0.0 size=       0KiB time=N/A bitrate=N/A speed=N/A elapsed=0:00:20.80    \nframe=    0 fps=0.0 q=0.0 size=       0KiB time=N/A bitrate=N/A speed=N/A elapsed=0:00:21.39    \nframe=    0 fps=0.0 q=0.0 size=       0KiB time=N/A bitrate=N/A speed=N/A elapsed=0:00:22.01    \nframe=    0 fps=0.0 q=0.0 size=       0KiB time=N/A bitrate=N/A speed=N/A elapsed=0:00:22.58    \nframe=    0 fps=0.0 q=0.0 size=       0KiB time=N/A bitrate=N/A speed=N/A elapsed=0:00:23.15    \nframe=    0 fps=0.0 q=0.0 size=       0KiB time=N/A bitrate=N/A speed=N/A elapsed=0:00:23.74    \nframe=    0 fps=0.0 q=0.0 size=       0KiB time=N/A bitrate=N/A speed=N/A elapsed=0:00:24.31    \nframe=    0 fps=0.0 q=0.0 size=       0KiB time=N/A bitrate=N/A speed=N/A elapsed=0:00:24.87    \nframe=    1 fps=0.0 q=22.0 size=       1KiB time=00:00:00.00 bitrate=N/A speed=   0x elapsed=0:00:25.44    \nframe=    1 fps=0.0 q=22.0 size=       1KiB time=00:00:00.00 bitrate=N/A speed=   0x elapsed=0:00:26.01    \nframe=    1 fps=0.0 q=22.0 size=       1KiB time=00:00:00.00 bitrate=N/A speed=   0x elapsed=0:00:26.61    \nframe=    1 fps=0.0 q=22.0 size=       1KiB time=00:00:00.00 bitrate=N/A speed=   0x elapsed=0:00:27.19    \nframe=    1 fps=0.0 q=22.0 size=       1KiB time=00:00:00.00 bitrate=N/A speed=   0x elapsed=0:00:27.76    \nframe=    1 fps=0.0 q=22.0 size=       1KiB time=00:00:00.00 bitrate=N/A speed=   0x elapsed=0:00:28.30    \nframe=    1 fps=0.0 q=22.0 size=       1KiB time=00:00:00.00 bitrate=N/A speed=   0x elapsed=0:00:28.86    \nframe=    1 fps=0.0 q=22.0 size=       1KiB time=00:00:00.00 bitrate=N/A speed=   0x elapsed=0:00:29.42    \nframe=    1 fps=0.0 q=22.0 size=       1KiB time=00:00:00.00 bitrate=N/A speed=   0x elapsed=0:00:29.99    \nframe=    1 fps=0.0 q=22.0 size=       1KiB time=00:00:00.00 bitrate=N/A speed=   0x elapsed=0:00:30.56    \nframe=    1 fps=0.0 q=22.0 size=       1KiB time=00:00:00.00 bitrate=N/A speed=   0x elapsed=0:00:31.13    \nframe=    1 fps=0.0 q=22.0 size=       1KiB time=00:00:00.00 bitrate=N/A speed=   0x elapsed=0:00:31.69    \nframe=    2 fps=0.1 q=51.0 size=       1KiB time=00:00:00.00 bitrate= 537.6kbits/s speed=0.000258x elapsed=0:00:32.27    \nframe=    3 fps=0.1 q=48.0 size=       1KiB time=00:00:00.01 bitrate= 268.8kbits/s speed=0.000507x elapsed=0:00:32.89    \nframe=    4 fps=0.1 q=51.0 size=       1KiB time=00:00:00.01 bitrate= 268.8kbits/s speed=0.000498x elapsed=0:00:33.46    \nframe=    5 fps=0.1 q=46.0 size=       1KiB time=00:00:00.03 bitrate= 134.4kbits/s speed=0.000979x elapsed=0:00:34.03    \nframe=    6 fps=0.2 q=51.0 size=       1KiB time=00:00:00.04 bitrate= 107.5kbits/s speed=0.0012x elapsed=0:00:34.62    \nframe=    6 fps=0.2 q=51.0 size=       1KiB time=00:00:00.04 bitrate= 107.5kbits/s speed=0.00118x elapsed=0:00:35.21    \nframe=    8 fps=0.2 q=47.0 size=       1KiB time=00:00:00.05 bitrate=  76.8kbits/s speed=0.00163x elapsed=0:00:35.81    \nframe=    8 fps=0.2 q=47.0 size=       1KiB time=00:00:00.05 bitrate=  76.8kbits/s speed=0.0016x elapsed=0:00:36.40    \nframe=    9 fps=0.2 q=43.0 size=       1KiB time=00:00:00.06 bitrate=  67.2kbits/s speed=0.0018x elapsed=0:00:37.00    \nframe=    9 fps=0.2 q=43.0 size=       1KiB time=00:00:00.06 bitrate=  67.2kbits/s speed=0.00177x elapsed=0:00:37.57    \nframe=   10 fps=0.3 q=46.0 size=       1KiB time=00:00:00.07 bitrate=  59.7kbits/s speed=0.00196x elapsed=0:00:38.17    \nframe=   11 fps=0.3 q=47.0 size=       1KiB time=00:00:00.08 bitrate=  53.8kbits/s speed=0.00215x elapsed=0:00:38.75    \nframe=   12 fps=0.3 q=43.0 size=       1KiB time=00:00:00.08 bitrate=  53.8kbits/s speed=0.00212x elapsed=0:00:39.32    \nframe=   12 fps=0.3 q=43.0 size=       1KiB time=00:00:00.09 bitrate=  48.9kbits/s speed=0.0023x elapsed=0:00:39.93    \nframe=   13 fps=0.3 q=46.0 size=       1KiB time=00:00:00.10 bitrate=  44.8kbits/s speed=0.00247x elapsed=0:00:40.53    \nframe=   15 fps=0.4 q=47.0 size=       1KiB time=00:00:00.11 bitrate=  38.4kbits/s speed=0.00284x elapsed=0:00:41.10    \nframe=   16 fps=0.4 q=45.0 size=       1KiB time=00:00:00.12 bitrate=  35.8kbits/s speed=0.003x elapsed=0:00:41.66    \nframe=   16 fps=0.4 q=45.0 size=       1KiB time=00:00:00.12 bitrate=  35.8kbits/s speed=0.00296x elapsed=0:00:42.21    \nframe=   17 fps=0.4 q=32.0 size=       1KiB time=00:00:00.13 bitrate=  33.6kbits/s speed=0.00312x elapsed=0:00:42.77    \nframe=   18 fps=0.4 q=44.0 size=       1KiB time=00:00:00.14 bitrate=  31.6kbits/s speed=0.00327x elapsed=0:00:43.32    \nframe=   18 fps=0.4 q=44.0 size=       1KiB time=00:00:00.14 bitrate=  31.6kbits/s speed=0.00323x elapsed=0:00:43.88    \nframe=   20 fps=0.4 q=44.0 size=       1KiB time=00:00:00.15 bitrate=  28.3kbits/s speed=0.00356x elapsed=0:00:44.44    \nframe=   20 fps=0.4 q=44.0 size=       1KiB time=00:00:00.15 bitrate=  28.3kbits/s speed=0.00352x elapsed=0:00:45.04    \nframe=   21 fps=0.5 q=46.0 size=       1KiB time=00:00:00.16 bitrate=  26.9kbits/s speed=0.00365x elapsed=0:00:45.61    \nframe=   21 fps=0.5 q=46.0 size=       1KiB time=00:00:00.16 bitrate=  26.9kbits/s speed=0.00361x elapsed=0:00:46.17    \nframe=   22 fps=0.5 q=43.0 size=       1KiB time=00:00:00.17 bitrate=  25.6kbits/s speed=0.00375x elapsed=0:00:46.72    \nframe=   22 fps=0.5 q=43.0 size=       1KiB time=00:00:00.17 bitrate=  25.6kbits/s speed=0.0037x elapsed=0:00:47.29    \nframe=   23 fps=0.5 q=47.0 size=       1KiB time=00:00:00.18 bitrate=  24.4kbits/s speed=0.00383x elapsed=0:00:47.86    \nframe=   23 fps=0.5 q=47.0 size=       1KiB time=00:00:00.18 bitrate=  24.4kbits/s speed=0.00378x elapsed=0:00:48.46    \nframe=   24 fps=0.5 q=41.0 size=       1KiB time=00:00:00.19 bitrate=  23.4kbits/s speed=0.00391x elapsed=0:00:49.07    \nframe=   24 fps=0.5 q=41.0 size=       1KiB time=00:00:00.19 bitrate=  23.4kbits/s speed=0.00386x elapsed=0:00:49.67    \nframe=   26 fps=0.5 q=42.0 size=       1KiB time=00:00:00.20 bitrate=  22.4kbits/s speed=0.00398x elapsed=0:00:50.26    \nframe=   26 fps=0.5 q=42.0 size=       1KiB time=00:00:00.20 bitrate=  21.5kbits/s speed=0.0041x elapsed=0:00:50.85    \nframe=   26 fps=0.5 q=42.0 size=       1KiB time=00:00:00.20 bitrate=  21.5kbits/s speed=0.00405x elapsed=0:00:51.45    \nframe=   27 fps=0.5 q=47.0 size=       1KiB time=00:00:00.21 bitrate=  20.7kbits/s speed=0.00416x elapsed=0:00:52.04    \nframe=   28 fps=0.5 q=42.0 size=       1KiB time=00:00:00.22 bitrate=  19.9kbits/s speed=0.00428x elapsed=0:00:52.62    \nframe=   28 fps=0.5 q=42.0 size=       1KiB time=00:00:00.22 bitrate=  19.9kbits/s speed=0.00423x elapsed=0:00:53.21    \nframe=   31 fps=0.6 q=46.0 size=       1KiB time=00:00:00.25 bitrate=  17.9kbits/s speed=0.00465x elapsed=0:00:53.79    \nframe=   31 fps=0.6 q=46.0 size=       1KiB time=00:00:00.25 bitrate=  17.9kbits/s speed=0.0046x elapsed=0:00:54.36    \nframe=   32 fps=0.6 q=42.0 size=       1KiB time=00:00:00.25 bitrate=  17.3kbits/s speed=0.0047x elapsed=0:00:54.91    \nframe=   33 fps=0.6 q=28.0 size=       1KiB time=00:00:00.26 bitrate=  16.8kbits/s speed=0.00481x elapsed=0:00:55.48    \nframe=   33 fps=0.6 q=28.0 size=       1KiB time=00:00:00.26 bitrate=  16.8kbits/s speed=0.00476x elapsed=0:00:56.03    \nframe=   35 fps=0.6 q=47.0 size=       1KiB time=00:00:00.28 bitrate=  15.8kbits/s speed=0.005x elapsed=0:00:56.61    \nframe=   35 fps=0.6 q=47.0 size=       1KiB time=00:00:00.28 bitrate=  15.8kbits/s speed=0.00495x elapsed=0:00:57.19    \nframe=   36 fps=0.6 q=41.0 size=       1KiB time=00:00:00.29 bitrate=  15.4kbits/s speed=0.00505x elapsed=0:00:57.75    \nframe=   37 fps=0.6 q=45.0 size=       1KiB time=00:00:00.30 bitrate=  14.9kbits/s speed=0.00514x elapsed=0:00:58.32    \nframe=   37 fps=0.6 q=45.0 size=       1KiB time=00:00:00.30 bitrate=  14.9kbits/s speed=0.00509x elapsed=0:00:58.88    \nframe=   38 fps=0.6 q=41.0 size=       1KiB time=00:00:00.30 bitrate=  14.5kbits/s speed=0.00519x elapsed=0:00:59.45    \nframe=   38 fps=0.6 q=41.0 size=       1KiB time=00:00:00.30 bitrate=  14.5kbits/s speed=0.00514x elapsed=0:01:00.02    \nframe=   38 fps=0.6 q=41.0 size=       1KiB time=00:00:00.30 bitrate=  14.5kbits/s speed=0.00509x elapsed=0:01:00.60    \nframe=   39 fps=0.6 q=47.0 size=       1KiB time=00:00:00.31 bitrate=  14.1kbits/s speed=0.00517x elapsed=0:01:01.22    \nframe=   39 fps=0.6 q=47.0 size=       1KiB time=00:00:00.31 bitrate=  14.1kbits/s speed=0.00512x elapsed=0:01:01.86    \nframe=   39 fps=0.6 q=47.0 size=       1KiB time=00:00:00.31 bitrate=  14.1kbits/s speed=0.00507x elapsed=0:01:02.48    \nframe=   40 fps=0.6 q=42.0 size=       1KiB time=00:00:00.32 bitrate=  13.8kbits/s speed=0.00515x elapsed=0:01:03.06    \nframe=   40 fps=0.6 q=42.0 size=       1KiB time=00:00:00.32 bitrate=  13.8kbits/s speed=0.00511x elapsed=0:01:03.65    \nframe=   42 fps=0.7 q=42.0 size=       1KiB time=00:00:00.33 bitrate=  13.4kbits/s speed=0.00519x elapsed=0:01:04.23    \nframe=   42 fps=0.6 q=42.0 size=       1KiB time=00:00:00.34 bitrate=  13.1kbits/s speed=0.00527x elapsed=0:01:04.82    \nframe=   43 fps=0.7 q=47.0 size=       1KiB time=00:00:00.35 bitrate=  12.8kbits/s speed=0.00535x elapsed=0:01:05.39    \nframe=   44 fps=0.7 q=42.0 size=       1KiB time=00:00:00.35 bitrate=  12.5kbits/s speed=0.00543x elapsed=0:01:05.98    \nframe=   44 fps=0.7 q=42.0 size=       1KiB time=00:00:00.35 bitrate=  12.5kbits/s speed=0.00538x elapsed=0:01:06.55    \nframe=   46 fps=0.7 q=42.0 size=       1KiB time=00:00:00.37 bitrate=  11.9kbits/s speed=0.00559x elapsed=0:01:07.12    \nframe=   47 fps=0.7 q=46.0 size=       1KiB time=00:00:00.38 bitrate=  11.7kbits/s speed=0.00566x elapsed=0:01:07.69    \nframe=   48 fps=0.7 q=43.0 size=       1KiB time=00:00:00.39 bitrate=  11.4kbits/s speed=0.00574x elapsed=0:01:08.26    \nframe=   49 fps=0.7 q=25.0 size=       1KiB time=00:00:00.40 bitrate=  11.2kbits/s speed=0.00581x elapsed=0:01:08.82    \nframe=   50 fps=0.7 q=42.0 size=       1KiB time=00:00:00.40 bitrate=  11.2kbits/s speed=0.00577x elapsed=0:01:09.37    \nframe=   51 fps=0.7 q=46.0 size=       1KiB time=00:00:00.41 bitrate=  10.8kbits/s speed=0.00596x elapsed=0:01:09.91    \nframe=   52 fps=0.7 q=42.0 size=       1KiB time=00:00:00.42 bitrate=  10.5kbits/s speed=0.00603x elapsed=0:01:10.45    \nframe=   52 fps=0.7 q=42.0 size=       1KiB time=00:00:00.42 bitrate=  10.5kbits/s speed=0.00598x elapsed=0:01:11.01    \nframe=   53 fps=0.7 q=45.0 size=       1KiB time=00:00:00.43 bitrate=  10.3kbits/s speed=0.00605x elapsed=0:01:11.57    \nframe=   53 fps=0.7 q=45.0 size=       1KiB time=00:00:00.43 bitrate=  10.3kbits/s speed=0.00601x elapsed=0:01:12.16    \nframe=   54 fps=0.7 q=42.0 size=       1KiB time=00:00:00.44 bitrate=  10.1kbits/s speed=0.00607x elapsed=0:01:12.70    \nframe=   54 fps=0.7 q=42.0 size=       1KiB time=00:00:00.44 bitrate=  10.1kbits/s speed=0.00603x elapsed=0:01:13.26    \nframe=   55 fps=0.7 q=46.0 size=       1KiB time=00:00:00.45 bitrate=  10.0kbits/s speed=0.00609x elapsed=0:01:13.84    \nframe=   55 fps=0.7 q=46.0 size=       1KiB time=00:00:00.45 bitrate=  10.0kbits/s speed=0.00605x elapsed=0:01:14.42    \nframe=   55 fps=0.7 q=46.0 size=       1KiB time=00:00:00.45 bitrate=  10.0kbits/s speed=0.006x elapsed=0:01:15.04    \nframe=   56 fps=0.7 q=42.0 size=       1KiB time=00:00:00.45 bitrate=   9.8kbits/s speed=0.00606x elapsed=0:01:15.65    \nframe=   56 fps=0.7 q=42.0 size=       1KiB time=00:00:00.45 bitrate=   9.8kbits/s speed=0.00601x elapsed=0:01:16.24    \nframe=   57 fps=0.7 q=35.0 size=       1KiB time=00:00:00.46 bitrate=   9.6kbits/s speed=0.00607x elapsed=0:01:16.84    \nframe=   58 fps=0.7 q=42.0 size=       1KiB time=00:00:00.47 bitrate=   9.4kbits/s speed=0.00613x elapsed=0:01:17.46    \nframe=   59 fps=0.8 q=46.0 size=       1KiB time=00:00:00.48 bitrate=   9.3kbits/s speed=0.00619x elapsed=0:01:18.04    \nframe=   59 fps=0.8 q=46.0 size=       1KiB time=00:00:00.48 bitrate=   9.3kbits/s speed=0.00615x elapsed=0:01:18.63    \nframe=   60 fps=0.8 q=42.0 size=       1KiB time=00:00:00.49 bitrate=   9.1kbits/s speed=0.00621x elapsed=0:01:19.22    \nframe=   60 fps=0.8 q=42.0 size=       1KiB time=00:00:00.49 bitrate=   9.1kbits/s speed=0.00616x elapsed=0:01:19.79    \nframe=   61 fps=0.8 q=44.0 size=       1KiB time=00:00:00.50 bitrate=   9.0kbits/s speed=0.00622x elapsed=0:01:20.37    \nframe=   62 fps=0.8 q=42.0 size=       1KiB time=00:00:00.50 bitrate=   8.8kbits/s speed=0.00628x elapsed=0:01:20.95    \nframe=   63 fps=0.8 q=46.0 size=       1KiB time=00:00:00.51 bitrate=   8.7kbits/s speed=0.00634x elapsed=0:01:21.53    \nframe=   63 fps=0.8 q=46.0 size=       1KiB time=00:00:00.51 bitrate=   8.7kbits/s speed=0.00629x elapsed=0:01:22.11    \nframe=   64 fps=0.8 q=42.0 size=       1KiB time=00:00:00.52 bitrate=   8.5kbits/s speed=0.00635x elapsed=0:01:22.70    \nframe=   64 fps=0.8 q=42.0 size=       1KiB time=00:00:00.52 bitrate=   8.5kbits/s speed=0.0063x elapsed=0:01:23.28    \nframe=   65 fps=0.8 q=24.0 size=       1KiB time=00:00:00.53 bitrate=   8.4kbits/s speed=0.00636x elapsed=0:01:23.85    \nframe=   66 fps=0.8 q=43.0 size=       1KiB time=00:00:00.54 bitrate=   8.3kbits/s speed=0.00641x elapsed=0:01:24.46    \nframe=   67 fps=0.8 q=48.0 size=       1KiB time=00:00:00.55 bitrate=   8.1kbits/s speed=0.00647x elapsed=0:01:25.06    \nframe=   67 fps=0.8 q=48.0 size=       1KiB time=00:00:00.55 bitrate=   8.1kbits/s speed=0.00642x elapsed=0:01:25.66    \nframe=   67 fps=0.8 q=48.0 size=       1KiB time=00:00:00.55 bitrate=   8.1kbits/s speed=0.00638x elapsed=0:01:26.24    \nframe=   68 fps=0.8 q=43.0 size=       1KiB time=00:00:00.55 bitrate=   8.0kbits/s speed=0.00643x elapsed=0:01:26.82    \nframe=   68 fps=0.8 q=43.0 size=       1KiB time=00:00:00.55 bitrate=   8.0kbits/s speed=0.00639x elapsed=0:01:27.40    \nframe=   69 fps=0.8 q=45.0 size=       1KiB time=00:00:00.56 bitrate=   7.9kbits/s speed=0.00644x elapsed=0:01:27.96    \nframe=   70 fps=0.8 q=43.0 size=       1KiB time=00:00:00.57 bitrate=   7.8kbits/s speed=0.0065x elapsed=0:01:28.50    \nframe=   71 fps=0.8 q=45.0 size=       1KiB time=00:00:00.58 bitrate=   7.7kbits/s speed=0.00655x elapsed=0:01:29.06    \nframe=   71 fps=0.8 q=45.0 size=       1KiB time=00:00:00.58 bitrate=   7.7kbits/s speed=0.00651x elapsed=0:01:29.60    \nframe=   72 fps=0.8 q=43.0 size=       1KiB time=00:00:00.59 bitrate=   7.6kbits/s speed=0.00656x elapsed=0:01:30.16    \nframe=   73 fps=0.8 q=34.0 size=       1KiB time=00:00:00.60 bitrate=   7.5kbits/s speed=0.00661x elapsed=0:01:30.73    \nframe=   74 fps=0.8 q=42.0 size=       1KiB time=00:00:00.60 bitrate=   7.4kbits/s speed=0.00666x elapsed=0:01:31.31    \nframe=   75 fps=0.8 q=47.0 size=       1KiB time=00:00:00.61 bitrate=   7.3kbits/s speed=0.00671x elapsed=0:01:31.89    \nframe=   75 fps=0.8 q=47.0 size=       1KiB time=00:00:00.61 bitrate=   7.3kbits/s speed=0.00667x elapsed=0:01:32.50    \nframe=   76 fps=0.8 q=42.0 size=       1KiB time=00:00:00.62 bitrate=   7.2kbits/s speed=0.00671x elapsed=0:01:33.10    \nframe=   77 fps=0.8 q=44.0 size=       1KiB time=00:00:00.63 bitrate=   7.1kbits/s speed=0.00676x elapsed=0:01:33.66    \nframe=   79 fps=0.8 q=47.0 size=       1KiB time=00:00:00.65 bitrate=   6.9kbits/s speed=0.0069x elapsed=0:01:34.22    \nframe=   80 fps=0.8 q=42.0 size=       1KiB time=00:00:00.65 bitrate=   6.8kbits/s speed=0.00694x elapsed=0:01:34.79    \nframe=   81 fps=0.8 q=23.0 size=       1KiB time=00:00:00.66 bitrate=   6.7kbits/s speed=0.00699x elapsed=0:01:35.36    \nframe=   82 fps=0.9 q=41.0 size=       1KiB time=00:00:00.66 bitrate=   6.7kbits/s speed=0.00695x elapsed=0:01:35.94    \nframe=   83 fps=0.9 q=46.0 size=       1KiB time=00:00:00.68 bitrate=   6.6kbits/s speed=0.00708x elapsed=0:01:36.52    \nframe=   83 fps=0.9 q=46.0 size=       1KiB time=00:00:00.68 bitrate=   6.6kbits/s speed=0.00704x elapsed=0:01:37.09    \nframe=   84 fps=0.9 q=41.0 size=       1KiB time=00:00:00.69 bitrate=   6.5kbits/s speed=0.00708x elapsed=0:01:37.68    \nframe=   84 fps=0.9 q=41.0 size=       1KiB time=00:00:00.69 bitrate=   6.5kbits/s speed=0.00704x elapsed=0:01:38.25    \nframe=   85 fps=0.9 q=46.0 size=       1KiB time=00:00:00.70 bitrate=   6.4kbits/s speed=0.00708x elapsed=0:01:38.82    \nframe=   86 fps=0.9 q=41.0 size=       1KiB time=00:00:00.70 bitrate=   6.3kbits/s speed=0.00713x elapsed=0:01:39.38    \nframe=   86 fps=0.9 q=41.0 size=       1KiB time=00:00:00.70 bitrate=   6.3kbits/s speed=0.00709x elapsed=0:01:39.94    \nframe=   86 fps=0.9 q=41.0 size=       1KiB time=00:00:00.70 bitrate=   6.3kbits/s speed=0.00705x elapsed=0:01:40.51    \nframe=   87 fps=0.9 q=46.0 size=       1KiB time=00:00:00.71 bitrate=   6.3kbits/s speed=0.00709x elapsed=0:01:41.07    \nframe=   87 fps=0.9 q=46.0 size=       1KiB time=00:00:00.71 bitrate=   6.3kbits/s speed=0.00705x elapsed=0:01:41.63    \nframe=   88 fps=0.9 q=42.0 size=       1KiB time=00:00:00.72 bitrate=   6.2kbits/s speed=0.00709x elapsed=0:01:42.20    \nframe=   88 fps=0.9 q=42.0 size=       1KiB time=00:00:00.72 bitrate=   6.2kbits/s speed=0.00705x elapsed=0:01:42.79    \nframe=   89 fps=0.9 q=33.0 size=       1KiB time=00:00:00.73 bitrate=   6.1kbits/s speed=0.00709x elapsed=0:01:43.37    \nframe=   90 fps=0.9 q=43.0 size=       1KiB time=00:00:00.74 bitrate=   6.0kbits/s speed=0.00713x elapsed=0:01:43.97    \nframe=   91 fps=0.9 q=47.0 size=       1KiB time=00:00:00.75 bitrate=   6.0kbits/s speed=0.00717x elapsed=0:01:44.59    \nframe=   91 fps=0.9 q=47.0 size=       1KiB time=00:00:00.75 bitrate=   6.0kbits/s speed=0.00713x elapsed=0:01:45.22    \nframe=   91 fps=0.9 q=47.0 size=       1KiB time=00:00:00.75 bitrate=   6.0kbits/s speed=0.00709x elapsed=0:01:45.81    \nframe=   92 fps=0.9 q=43.0 size=       1KiB time=00:00:00.75 bitrate=   5.9kbits/s speed=0.00713x elapsed=0:01:46.41    \nframe=   92 fps=0.9 q=43.0 size=       1KiB time=00:00:00.75 bitrate=   5.9kbits/s speed=0.00709x elapsed=0:01:46.99    \nframe=   93 fps=0.9 q=44.0 size=       1KiB time=00:00:00.76 bitrate=   5.8kbits/s speed=0.00713x elapsed=0:01:47.57    \nframe=   95 fps=0.9 q=47.0 size=       1KiB time=00:00:00.78 bitrate=   5.7kbits/s speed=0.00724x elapsed=0:01:48.12    \nframe=   95 fps=0.9 q=47.0 size=       1KiB time=00:00:00.78 bitrate=   5.7kbits/s speed=0.00721x elapsed=0:01:48.68    \nframe=   96 fps=0.9 q=43.0 size=       1KiB time=00:00:00.79 bitrate=   5.7kbits/s speed=0.00725x elapsed=0:01:49.24    \nframe=   97 fps=0.9 q=23.0 size=       1KiB time=00:00:00.80 bitrate=   5.6kbits/s speed=0.00728x elapsed=0:01:49.81    \nframe=   98 fps=0.9 q=43.0 size=       1KiB time=00:00:00.80 bitrate=   5.5kbits/s speed=0.00732x elapsed=0:01:50.36    \nframe=   99 fps=0.9 q=47.0 size=       1KiB time=00:00:00.81 bitrate=   5.5kbits/s speed=0.00736x elapsed=0:01:50.92    \nframe=   99 fps=0.9 q=47.0 size=       1KiB time=00:00:00.81 bitrate=   5.5kbits/s speed=0.00732x elapsed=0:01:51.49    \nframe=  100 fps=0.9 q=43.0 size=       1KiB time=00:00:00.82 bitrate=   5.4kbits/s speed=0.00736x elapsed=0:01:52.04    \nframe=  101 fps=0.9 q=46.0 size=       1KiB time=00:00:00.83 bitrate=   5.4kbits/s speed=0.0074x elapsed=0:01:52.60    \nframe=  101 fps=0.9 q=46.0 size=       1KiB time=00:00:00.83 bitrate=   5.4kbits/s speed=0.00736x elapsed=0:01:53.16    \nframe=  102 fps=0.9 q=43.0 size=       1KiB time=00:00:00.84 bitrate=   5.3kbits/s speed=0.0074x elapsed=0:01:53.73    \nframe=  102 fps=0.9 q=43.0 size=       1KiB time=00:00:00.84 bitrate=   5.3kbits/s speed=0.00736x elapsed=0:01:54.29    \nframe=  103 fps=0.9 q=45.0 size=       1KiB time=00:00:00.85 bitrate=   5.3kbits/s speed=0.0074x elapsed=0:01:54.86    \nframe=  103 fps=0.9 q=45.0 size=       1KiB time=00:00:00.85 bitrate=   5.3kbits/s speed=0.00736x elapsed=0:01:55.43    \nframe=  104 fps=0.9 q=44.0 size=       1KiB time=00:00:00.85 bitrate=   5.2kbits/s speed=0.0074x elapsed=0:01:56.00    \nframe=  105 fps=0.9 q=33.0 size=       1KiB time=00:00:00.86 bitrate=   5.2kbits/s speed=0.00743x elapsed=0:01:56.57    \nframe=  106 fps=0.9 q=44.0 size=       1KiB time=00:00:00.87 bitrate=   5.1kbits/s speed=0.00747x elapsed=0:01:57.12    \nframe=  107 fps=0.9 q=48.0 size=       1KiB time=00:00:00.88 bitrate=   5.1kbits/s speed=0.00751x elapsed=0:01:57.68    \nframe=  107 fps=0.9 q=48.0 size=       1KiB time=00:00:00.88 bitrate=   5.1kbits/s speed=0.00747x elapsed=0:01:58.24    \nframe=  108 fps=0.9 q=44.0 size=       1KiB time=00:00:00.89 bitrate=   5.0kbits/s speed=0.0075x elapsed=0:01:58.82    \nframe=  108 fps=0.9 q=44.0 size=       1KiB time=00:00:00.89 bitrate=   5.0kbits/s speed=0.00747x elapsed=0:01:59.40    \nframe=  109 fps=0.9 q=44.0 size=       1KiB time=00:00:00.90 bitrate=   5.0kbits/s speed=0.0075x elapsed=0:02:00.01    \nframe=  109 fps=0.9 q=44.0 size=       1KiB time=00:00:00.90 bitrate=   5.0kbits/s speed=0.00746x elapsed=0:02:00.61    \nframe=  111 fps=0.9 q=47.0 size=       1KiB time=00:00:00.91 bitrate=   4.9kbits/s speed=0.00756x elapsed=0:02:01.20    \nframe=  111 fps=0.9 q=47.0 size=       1KiB time=00:00:00.91 bitrate=   4.9kbits/s speed=0.00752x elapsed=0:02:01.82    \nframe=  112 fps=0.9 q=44.0 size=       1KiB time=00:00:00.92 bitrate=   4.8kbits/s speed=0.00756x elapsed=0:02:02.39    \nframe=  112 fps=0.9 q=44.0 size=       1KiB time=00:00:00.92 bitrate=   4.8kbits/s speed=0.00752x elapsed=0:02:02.97    \nframe=  114 fps=0.9 q=45.0 size=       1KiB time=00:00:00.94 bitrate=   4.8kbits/s speed=0.00762x elapsed=0:02:03.55    \nframe=  114 fps=0.9 q=45.0 size=       1KiB time=00:00:00.94 bitrate=   4.8kbits/s speed=0.00759x elapsed=0:02:04.13    \nframe=  115 fps=0.9 q=48.0 size=       1KiB time=00:00:00.95 bitrate=   4.7kbits/s speed=0.00762x elapsed=0:02:04.70    \nframe=  115 fps=0.9 q=48.0 size=       1KiB time=00:00:00.95 bitrate=   4.7kbits/s speed=0.00758x elapsed=0:02:05.30    \nframe=  116 fps=0.9 q=45.0 size=       1KiB time=00:00:00.95 bitrate=   4.7kbits/s speed=0.00754x elapsed=0:02:05.91    \nframe=  116 fps=0.9 q=45.0 size=       1KiB time=00:00:00.95 bitrate=   4.7kbits/s speed=0.00757x elapsed=0:02:06.52    \nframe=  116 fps=0.9 q=45.0 size=       1KiB time=00:00:00.95 bitrate=   4.7kbits/s speed=0.00754x elapsed=0:02:07.12    \nframe=  117 fps=0.9 q=46.0 size=       1KiB time=00:00:00.96 bitrate=   4.6kbits/s speed=0.00757x elapsed=0:02:07.71    \nframe=  118 fps=0.9 q=45.0 size=       1KiB time=00:00:00.96 bitrate=   4.6kbits/s speed=0.00754x elapsed=0:02:08.25    \nframe=  118 fps=0.9 q=45.0 size=       1KiB time=00:00:00.97 bitrate=   4.6kbits/s speed=0.00757x elapsed=0:02:08.81    \nframe=  118 fps=0.9 q=45.0 size=       1KiB time=00:00:00.97 bitrate=   4.6kbits/s speed=0.00754x elapsed=0:02:09.36    \nframe=  119 fps=0.9 q=46.0 size=       1KiB time=00:00:00.98 bitrate=   4.6kbits/s speed=0.00757x elapsed=0:02:09.93    \nframe=  119 fps=0.9 q=46.0 size=       1KiB time=00:00:00.98 bitrate=   4.6kbits/s speed=0.00753x elapsed=0:02:10.55    \nframe=  120 fps=0.9 q=45.0 size=       1KiB time=00:00:00.99 bitrate=   4.5kbits/s speed=0.00756x elapsed=0:02:11.11    \nframe=  121 fps=0.9 q=34.0 size=       1KiB time=00:00:01.00 bitrate=   4.5kbits/s speed=0.00759x elapsed=0:02:11.67    \nframe=  122 fps=0.9 q=47.0 size=       1KiB time=00:00:01.00 bitrate=   4.4kbits/s speed=0.00763x elapsed=0:02:12.22    \nframe=  123 fps=0.9 q=49.0 size=       1KiB time=00:00:01.01 bitrate=   4.4kbits/s speed=0.00766x elapsed=0:02:12.79    \nframe=  124 fps=0.9 q=47.0 size=       1KiB time=00:00:01.02 bitrate=   4.4kbits/s speed=0.00769x elapsed=0:02:13.36    \nframe=  125 fps=0.9 q=45.0 size=       1KiB time=00:00:01.03 bitrate=   4.3kbits/s speed=0.00772x elapsed=0:02:13.92    \nframe=  127 fps=0.9 q=47.0 size=       1KiB time=00:00:01.05 bitrate=   4.3kbits/s speed=0.00781x elapsed=0:02:14.51    \nframe=  127 fps=0.9 q=47.0 size=       1KiB time=00:00:01.05 bitrate=   4.3kbits/s speed=0.00777x elapsed=0:02:15.08    \nframe=  128 fps=0.9 q=48.0 size=       1KiB time=00:00:01.05 bitrate=   4.2kbits/s speed=0.0078x elapsed=0:02:15.66    \nframe=  130 fps=1.0 q=48.0 size=       1KiB time=00:00:01.06 bitrate=   4.2kbits/s speed=0.00783x elapsed=0:02:16.25    \nframe=  130 fps=0.9 q=48.0 size=       1KiB time=00:00:01.07 bitrate=   4.2kbits/s speed=0.00786x elapsed=0:02:16.84    \nframe=  132 fps=1.0 q=48.0 size=       1KiB time=00:00:01.09 bitrate=   4.1kbits/s speed=0.00794x elapsed=0:02:17.41    \nframe=  133 fps=1.0 q=46.0 size=       1KiB time=00:00:01.10 bitrate=   4.1kbits/s speed=0.00797x elapsed=0:02:17.98    \nframe=  134 fps=1.0 q=48.0 size=       1KiB time=00:00:01.10 bitrate=   4.0kbits/s speed=0.008x elapsed=0:02:18.54    \nframe=  134 fps=1.0 q=48.0 size=       1KiB time=00:00:01.10 bitrate=   4.0kbits/s speed=0.00797x elapsed=0:02:19.10    \nframe=  135 fps=1.0 q=48.0 size=       1KiB time=00:00:01.11 bitrate=   4.0kbits/s speed=0.00799x elapsed=0:02:19.68    \nframe=  135 fps=1.0 q=48.0 size=       1KiB time=00:00:01.11 bitrate=   4.0kbits/s speed=0.00796x elapsed=0:02:20.29    \nframe=  136 fps=1.0 q=42.0 size=       1KiB time=00:00:01.12 bitrate=   4.0kbits/s speed=0.00798x elapsed=0:02:20.89    \nframe=  137 fps=1.0 q=34.0 size=       1KiB time=00:00:01.12 bitrate=   4.0kbits/s speed=0.00795x elapsed=0:02:21.46    \nframe=  138 fps=1.0 q=49.0 size=       1KiB time=00:00:01.14 bitrate=   3.9kbits/s speed=0.00804x elapsed=0:02:22.06    \nframe=  139 fps=1.0 q=48.0 size=       1KiB time=00:00:01.15 bitrate=   3.9kbits/s speed=0.00806x elapsed=0:02:22.65    \nframe=  139 fps=1.0 q=48.0 size=       1KiB time=00:00:01.15 bitrate=   3.9kbits/s speed=0.00803x elapsed=0:02:23.24    \nframe=  140 fps=1.0 q=49.0 size=       1KiB time=00:00:01.15 bitrate=   3.9kbits/s speed=0.00805x elapsed=0:02:23.84    \nframe=  141 fps=1.0 q=46.0 size=       1KiB time=00:00:01.16 bitrate=   3.8kbits/s speed=0.00808x elapsed=0:02:24.42    \nframe=  142 fps=1.0 q=49.0 size=       1KiB time=00:00:01.17 bitrate=   3.8kbits/s speed=0.0081x elapsed=0:02:24.99    \nframe=  143 fps=1.0 q=48.0 size=       1KiB time=00:00:01.18 bitrate=   3.8kbits/s speed=0.00813x elapsed=0:02:25.56    \nframe=  143 fps=1.0 q=48.0 size=       1KiB time=00:00:01.18 bitrate=   3.8kbits/s speed=0.0081x elapsed=0:02:26.12    \nframe=  144 fps=1.0 q=49.0 size=       1KiB time=00:00:01.19 bitrate=   3.8kbits/s speed=0.00812x elapsed=0:02:26.69    \nframe=  145 fps=1.0 q=23.0 size=       1KiB time=00:00:01.20 bitrate=   3.7kbits/s speed=0.00815x elapsed=0:02:27.25    \nframe=  147 fps=1.0 q=48.0 size=       1KiB time=00:00:01.20 bitrate=   3.7kbits/s speed=0.00817x elapsed=0:02:27.82    \nframe=  147 fps=1.0 q=48.0 size=       1KiB time=00:00:01.21 bitrate=   3.7kbits/s speed=0.0082x elapsed=0:02:28.36    \nframe=  147 fps=1.0 q=48.0 size=       1KiB time=00:00:01.21 bitrate=   3.7kbits/s speed=0.00817x elapsed=0:02:28.95    \nframe=  147 fps=1.0 q=48.0 size=       1KiB time=00:00:01.21 bitrate=   3.7kbits/s speed=0.00814x elapsed=0:02:29.53    \nframe=  148 fps=1.0 q=49.0 size=       1KiB time=00:00:01.22 bitrate=   3.7kbits/s speed=0.00816x elapsed=0:02:30.11    \nframe=  148 fps=1.0 q=49.0 size=       1KiB time=00:00:01.22 bitrate=   3.7kbits/s speed=0.00813x elapsed=0:02:30.69    \nframe=  149 fps=1.0 q=47.0 size=       1KiB time=00:00:01.23 bitrate=   3.6kbits/s speed=0.00815x elapsed=0:02:31.27    \nframe=  149 fps=1.0 q=47.0 size=       1KiB time=00:00:01.23 bitrate=   3.6kbits/s speed=0.00812x elapsed=0:02:31.83    \nframe=  150 fps=1.0 q=48.0 size=       1KiB time=00:00:01.24 bitrate=   3.6kbits/s speed=0.00815x elapsed=0:02:32.41    \nframe=  150 fps=1.0 q=48.0 size=       1KiB time=00:00:01.24 bitrate=   3.6kbits/s speed=0.00812x elapsed=0:02:32.99    \nframe=  151 fps=1.0 q=46.0 size=       1KiB time=00:00:01.25 bitrate=   3.6kbits/s speed=0.00814x elapsed=0:02:33.56    \nframe=  151 fps=1.0 q=46.0 size=       1KiB time=00:00:01.25 bitrate=   3.6kbits/s speed=0.00811x elapsed=0:02:34.15    \nframe=  151 fps=1.0 q=46.0 size=       1KiB time=00:00:01.25 bitrate=   3.6kbits/s speed=0.00808x elapsed=0:02:34.73    \nframe=  152 fps=1.0 q=48.0 size=       1KiB time=00:00:01.25 bitrate=   3.6kbits/s speed=0.0081x elapsed=0:02:35.30    \nframe=  154 fps=1.0 q=50.0 size=       1KiB time=00:00:01.27 bitrate=   3.5kbits/s speed=0.00818x elapsed=0:02:35.86    \nframe=  155 fps=1.0 q=49.0 size=       1KiB time=00:00:01.28 bitrate=   3.5kbits/s speed=0.0082x elapsed=0:02:36.42    \nframe=  155 fps=1.0 q=49.0 size=       1KiB time=00:00:01.28 bitrate=   3.5kbits/s speed=0.00817x elapsed=0:02:36.99    \nframe=  156 fps=1.0 q=50.0 size=       1KiB time=00:00:01.29 bitrate=   3.5kbits/s speed=0.0082x elapsed=0:02:37.55    \nframe=  157 fps=1.0 q=45.0 size=       1KiB time=00:00:01.30 bitrate=   3.4kbits/s speed=0.00822x elapsed=0:02:38.12    \nframe=  157 fps=1.0 q=45.0 size=       1KiB time=00:00:01.30 bitrate=   3.4kbits/s speed=0.00819x elapsed=0:02:38.69    \nframe=  159 fps=1.0 q=48.0 size=       1KiB time=00:00:01.31 bitrate=   3.4kbits/s speed=0.00827x elapsed=0:02:39.27    \nframe=  159 fps=1.0 q=48.0 size=       1KiB time=00:00:01.31 bitrate=   3.4kbits/s speed=0.00824x elapsed=0:02:39.85    \nframe=  161 fps=1.0 q=28.0 size=       1KiB time=00:00:01.33 bitrate=   3.4kbits/s speed=0.00831x elapsed=0:02:40.40    \nframe=  162 fps=1.0 q=50.0 size=       1KiB time=00:00:01.34 bitrate=   3.3kbits/s speed=0.00834x elapsed=0:02:40.95    \nframe=  162 fps=1.0 q=50.0 size=       1KiB time=00:00:01.34 bitrate=   3.3kbits/s speed=0.00831x elapsed=0:02:41.50    \nframe=  163 fps=1.0 q=49.0 size=       1KiB time=00:00:01.35 bitrate=   3.3kbits/s speed=0.00833x elapsed=0:02:42.04    \nframe=  163 fps=1.0 q=49.0 size=       1KiB time=00:00:01.35 bitrate=   3.3kbits/s speed=0.0083x elapsed=0:02:42.62    \nframe=  164 fps=1.0 q=45.0 size=       1KiB time=00:00:01.35 bitrate=   3.3kbits/s speed=0.00832x elapsed=0:02:43.19    \nframe=  165 fps=1.0 q=47.0 size=       1KiB time=00:00:01.35 bitrate=   3.3kbits/s speed=0.0083x elapsed=0:02:43.72    \nframe=  165 fps=1.0 q=47.0 size=       1KiB time=00:00:01.36 bitrate=   3.3kbits/s speed=0.00832x elapsed=0:02:44.27    \nframe=  166 fps=1.0 q=49.0 size=       1KiB time=00:00:01.37 bitrate=   3.3kbits/s speed=0.00834x elapsed=0:02:44.82    \nframe=  166 fps=1.0 q=49.0 size=       1KiB time=00:00:01.37 bitrate=   3.3kbits/s speed=0.00831x elapsed=0:02:45.37    \nframe=  166 fps=1.0 q=49.0 size=       1KiB time=00:00:01.37 bitrate=   3.3kbits/s speed=0.00829x elapsed=0:02:45.94    \nframe=  167 fps=1.0 q=46.0 size=       1KiB time=00:00:01.38 bitrate=   3.2kbits/s speed=0.00831x elapsed=0:02:46.49    \nframe=  167 fps=1.0 q=46.0 size=       1KiB time=00:00:01.38 bitrate=   3.2kbits/s speed=0.00828x elapsed=0:02:47.08    \nframe=  168 fps=1.0 q=49.0 size=       1KiB time=00:00:01.39 bitrate=   3.2kbits/s speed=0.0083x elapsed=0:02:47.65    \nframe=  170 fps=1.0 q=51.0 size=       1KiB time=00:00:01.40 bitrate=   3.2kbits/s speed=0.00837x elapsed=0:02:48.20    \nframe=  170 fps=1.0 q=51.0 size=       1KiB time=00:00:01.40 bitrate=   3.2kbits/s speed=0.00834x elapsed=0:02:48.77    \nframe=  171 fps=1.0 q=49.0 size=       1KiB time=00:00:01.41 bitrate=   3.2kbits/s speed=0.00837x elapsed=0:02:49.31    \nframe=  172 fps=1.0 q=46.0 size=       1KiB time=00:00:01.42 bitrate=   3.1kbits/s speed=0.00839x elapsed=0:02:49.88    \nframe=  173 fps=1.0 q=45.0 size=       1KiB time=00:00:01.43 bitrate=   3.1kbits/s speed=0.00841x elapsed=0:02:50.43    \nframe=  175 fps=1.0 q=48.0 size=       1KiB time=00:00:01.45 bitrate=   3.1kbits/s speed=0.00848x elapsed=0:02:50.98    \nframe=  175 fps=1.0 q=48.0 size=       1KiB time=00:00:01.45 bitrate=   3.1kbits/s speed=0.00845x elapsed=0:02:51.54    \nframe=  177 fps=1.0 q=29.0 size=       1KiB time=00:00:01.46 bitrate=   3.1kbits/s speed=0.00852x elapsed=0:02:52.10    \nframe=  178 fps=1.0 q=50.0 size=       1KiB time=00:00:01.47 bitrate=   3.0kbits/s speed=0.00854x elapsed=0:02:52.66    \nframe=  179 fps=1.0 q=49.0 size=       1KiB time=00:00:01.48 bitrate=   3.0kbits/s speed=0.00856x elapsed=0:02:53.22    \nframe=  179 fps=1.0 q=49.0 size=       1KiB time=00:00:01.48 bitrate=   3.0kbits/s speed=0.00854x elapsed=0:02:53.77    \nframe=  180 fps=1.0 q=44.0 size=       1KiB time=00:00:01.49 bitrate=   3.0kbits/s speed=0.00855x elapsed=0:02:54.36    \nframe=  181 fps=1.0 q=47.0 size=       1KiB time=00:00:01.50 bitrate=   3.0kbits/s speed=0.00857x elapsed=0:02:54.94    \nframe=  182 fps=1.0 q=49.0 size=       1KiB time=00:00:01.50 bitrate=   3.0kbits/s speed=0.0086x elapsed=0:02:55.47    \nframe=  182 fps=1.0 q=49.0 size=       1KiB time=00:00:01.50 bitrate=   3.0kbits/s speed=0.00857x elapsed=0:02:56.02    \nframe=  183 fps=1.0 q=46.0 size=       1KiB time=00:00:01.51 bitrate=   3.0kbits/s speed=0.00859x elapsed=0:02:56.57    \nframe=  183 fps=1.0 q=46.0 size=       1KiB time=00:00:01.51 bitrate=   3.0kbits/s speed=0.00856x elapsed=0:02:57.12    \nframe=  184 fps=1.0 q=49.0 size=       1KiB time=00:00:01.52 bitrate=   2.9kbits/s speed=0.00858x elapsed=0:02:57.70    \nframe=  185 fps=1.0 q=41.0 size=       1KiB time=00:00:01.53 bitrate=   2.9kbits/s speed=0.0086x elapsed=0:02:58.26    \nframe=  187 fps=1.0 q=48.0 size=       1KiB time=00:00:01.55 bitrate=   2.9kbits/s speed=0.00867x elapsed=0:02:58.84    \nframe=  187 fps=1.0 q=48.0 size=       1KiB time=00:00:01.55 bitrate=   2.9kbits/s speed=0.00864x elapsed=0:02:59.42    \nframe=  188 fps=1.0 q=50.0 size=       1KiB time=00:00:01.55 bitrate=   2.9kbits/s speed=0.00866x elapsed=0:02:59.98    \nframe=  189 fps=1.0 q=45.0 size=       1KiB time=00:00:01.56 bitrate=   2.9kbits/s speed=0.00868x elapsed=0:03:00.54    \nframe=  191 fps=1.1 q=48.0 size=       1KiB time=00:00:01.58 bitrate=   2.8kbits/s speed=0.00874x elapsed=0:03:01.10    \nframe=  192 fps=1.1 q=50.0 size=       1KiB time=00:00:01.59 bitrate=   2.8kbits/s speed=0.00876x elapsed=0:03:01.65    \nframe=  192 fps=1.1 q=50.0 size=       1KiB time=00:00:01.59 bitrate=   2.8kbits/s speed=0.00874x elapsed=0:03:02.21    \nframe=  193 fps=1.1 q=30.0 size=       1KiB time=00:00:01.60 bitrate=   2.8kbits/s speed=0.00875x elapsed=0:03:02.80    \nframe=  195 fps=1.1 q=50.0 size=       1KiB time=00:00:01.61 bitrate=   2.8kbits/s speed=0.00882x elapsed=0:03:03.38    \nframe=  196 fps=1.1 q=51.0 size=       1KiB time=00:00:01.62 bitrate=   2.8kbits/s speed=0.00883x elapsed=0:03:03.96    \nframe=  196 fps=1.1 q=51.0 size=       1KiB time=00:00:01.62 bitrate=   2.8kbits/s speed=0.00881x elapsed=0:03:04.52    \nframe=  197 fps=1.1 q=47.0 size=       1KiB time=00:00:01.63 bitrate=   2.7kbits/s speed=0.00883x elapsed=0:03:05.07    \nframe=  198 fps=1.1 q=51.0 size=       1KiB time=00:00:01.64 bitrate=   2.7kbits/s speed=0.00884x elapsed=0:03:05.64    \nframe=  198 fps=1.1 q=51.0 size=       1KiB time=00:00:01.64 bitrate=   2.7kbits/s speed=0.00881x elapsed=0:03:06.24    \nframe=  198 fps=1.1 q=51.0 size=       1KiB time=00:00:01.64 bitrate=   2.7kbits/s speed=0.00879x elapsed=0:03:06.81    \nframe=  199 fps=1.1 q=50.0 size=       1KiB time=00:00:01.65 bitrate=   2.7kbits/s speed=0.00881x elapsed=0:03:07.37    \nframe=  199 fps=1.1 q=50.0 size=       1KiB time=00:00:01.65 bitrate=   2.7kbits/s speed=0.00878x elapsed=0:03:07.93    \nframe=  199 fps=1.1 q=50.0 size=       1KiB time=00:00:01.65 bitrate=   2.7kbits/s speed=0.00875x elapsed=0:03:08.50    \nframe=  200 fps=1.1 q=51.0 size=       1KiB time=00:00:01.65 bitrate=   2.7kbits/s speed=0.00877x elapsed=0:03:09.06    \nframe=  202 fps=1.1 q=51.0 size=       1KiB time=00:00:01.67 bitrate=   2.7kbits/s speed=0.00883x elapsed=0:03:09.63    \nframe=  203 fps=1.1 q=49.0 size=       1KiB time=00:00:01.68 bitrate=   2.7kbits/s speed=0.00885x elapsed=0:03:10.20    \nframe=  203 fps=1.1 q=49.0 size=       1KiB time=00:00:01.68 bitrate=   2.7kbits/s speed=0.00882x elapsed=0:03:10.79    \nframe=  204 fps=1.1 q=51.0 size=       1KiB time=00:00:01.69 bitrate=   2.6kbits/s speed=0.00884x elapsed=0:03:11.35    \nframe=  205 fps=1.1 q=45.0 size=       1KiB time=00:00:01.70 bitrate=   2.6kbits/s speed=0.00886x elapsed=0:03:11.90    \nframe=  207 fps=1.1 q=48.0 size=       1KiB time=00:00:01.71 bitrate=   2.6kbits/s speed=0.00892x elapsed=0:03:12.46    \nframe=  209 fps=1.1 q=30.0 size=       1KiB time=00:00:01.72 bitrate=   2.6kbits/s speed=0.00894x elapsed=0:03:13.01    \nframe=  210 fps=1.1 q=51.0 size=       1KiB time=00:00:01.74 bitrate=   2.6kbits/s speed=0.009x elapsed=0:03:13.54    \nframe=  210 fps=1.1 q=51.0 size=       1KiB time=00:00:01.74 bitrate=   2.6kbits/s speed=0.00897x elapsed=0:03:14.09    \nframe=  211 fps=1.1 q=50.0 size=       1KiB time=00:00:01.75 bitrate=   2.6kbits/s speed=0.00899x elapsed=0:03:14.66    \nframe=  212 fps=1.1 q=46.0 size=       1KiB time=00:00:01.75 bitrate=   2.6kbits/s speed=0.00896x elapsed=0:03:15.21    \nframe=  212 fps=1.1 q=46.0 size=       1KiB time=00:00:01.75 bitrate=   2.5kbits/s speed=0.00898x elapsed=0:03:15.76    \nframe=  213 fps=1.1 q=47.0 size=       1KiB time=00:00:01.76 bitrate=   2.5kbits/s speed=0.009x elapsed=0:03:16.30    \nframe=  214 fps=1.1 q=50.0 size=       1KiB time=00:00:01.77 bitrate=   2.5kbits/s speed=0.00902x elapsed=0:03:16.82    \nframe=  214 fps=1.1 q=50.0 size=       1KiB time=00:00:01.77 bitrate=   2.5kbits/s speed=0.00899x elapsed=0:03:17.36    \nframe=  215 fps=1.1 q=47.0 size=       1KiB time=00:00:01.78 bitrate=   2.5kbits/s speed=0.00901x elapsed=0:03:17.89    \nframe=  215 fps=1.1 q=47.0 size=       1KiB time=00:00:01.78 bitrate=   2.5kbits/s speed=0.00899x elapsed=0:03:18.45    \nframe=  216 fps=1.1 q=50.0 size=       1KiB time=00:00:01.79 bitrate=   2.5kbits/s speed=0.009x elapsed=0:03:19.02    \nframe=  217 fps=1.1 q=41.0 size=       1KiB time=00:00:01.80 bitrate=   2.5kbits/s speed=0.00902x elapsed=0:03:19.56    \nframe=  219 fps=1.1 q=49.0 size=       1KiB time=00:00:01.81 bitrate=   2.5kbits/s speed=0.00908x elapsed=0:03:20.12    \nframe=  219 fps=1.1 q=49.0 size=       1KiB time=00:00:01.81 bitrate=   2.5kbits/s speed=0.00905x elapsed=0:03:20.65    \nframe=  220 fps=1.1 q=51.0 size=       1KiB time=00:00:01.82 bitrate=   2.5kbits/s speed=0.00907x elapsed=0:03:21.21    \nframe=  221 fps=1.1 q=46.0 size=       1KiB time=00:00:01.83 bitrate=   2.4kbits/s speed=0.00909x elapsed=0:03:21.78    \nframe=  223 fps=1.1 q=49.0 size=       1KiB time=00:00:01.85 bitrate=   2.4kbits/s speed=0.00914x elapsed=0:03:22.33    \nframe=  223 fps=1.1 q=49.0 size=       1KiB time=00:00:01.85 bitrate=   2.4kbits/s speed=0.00912x elapsed=0:03:22.90    \nframe=  223 fps=1.1 q=49.0 size=       1KiB time=00:00:01.85 bitrate=   2.4kbits/s speed=0.00909x elapsed=0:03:23.46    \nframe=  224 fps=1.1 q=51.0 size=       1KiB time=00:00:01.85 bitrate=   2.4kbits/s speed=0.00911x elapsed=0:03:24.02    \nframe=  226 fps=1.1 q=52.0 size=       1KiB time=00:00:01.87 bitrate=   2.4kbits/s speed=0.00916x elapsed=0:03:24.60    \nframe=  226 fps=1.1 q=52.0 size=       1KiB time=00:00:01.87 bitrate=   2.4kbits/s speed=0.00914x elapsed=0:03:25.18    \nframe=  227 fps=1.1 q=51.0 size=       1KiB time=00:00:01.88 bitrate=   2.4kbits/s speed=0.00915x elapsed=0:03:25.74    \nframe=  227 fps=1.1 q=51.0 size=       1KiB time=00:00:01.88 bitrate=   2.4kbits/s speed=0.00913x elapsed=0:03:26.32    \nframe=  228 fps=1.1 q=52.0 size=       1KiB time=00:00:01.89 bitrate=   2.4kbits/s speed=0.00914x elapsed=0:03:26.89    \nframe=  228 fps=1.1 q=52.0 size=       1KiB time=00:00:01.89 bitrate=   2.4kbits/s speed=0.00912x elapsed=0:03:27.45    \nframe=  229 fps=1.1 q=48.0 size=       1KiB time=00:00:01.90 bitrate=   2.4kbits/s speed=0.00913x elapsed=0:03:28.01    \nframe=  230 fps=1.1 q=50.0 size=       1KiB time=00:00:01.90 bitrate=   2.3kbits/s speed=0.00915x elapsed=0:03:28.58    \nframe=  230 fps=1.1 q=50.0 size=       1KiB time=00:00:01.90 bitrate=   2.3kbits/s speed=0.00912x elapsed=0:03:29.14    \nframe=  231 fps=1.1 q=47.0 size=       1KiB time=00:00:01.91 bitrate=   2.3kbits/s speed=0.00914x elapsed=0:03:29.69    \nframe=  231 fps=1.1 q=47.0 size=       1KiB time=00:00:01.91 bitrate=   2.3kbits/s speed=0.00912x elapsed=0:03:30.26    \nframe=  232 fps=1.1 q=50.0 size=       1KiB time=00:00:01.92 bitrate=   2.3kbits/s speed=0.00913x elapsed=0:03:30.81    \nframe=  233 fps=1.1 q=42.0 size=       1KiB time=00:00:01.93 bitrate=   2.3kbits/s speed=0.00915x elapsed=0:03:31.36    \nframe=  235 fps=1.1 q=50.0 size=       1KiB time=00:00:01.95 bitrate=   2.3kbits/s speed=0.0092x elapsed=0:03:31.91    \nframe=  236 fps=1.1 q=52.0 size=       1KiB time=00:00:01.95 bitrate=   2.3kbits/s speed=0.00922x elapsed=0:03:32.46    \nframe=  237 fps=1.1 q=46.0 size=       1KiB time=00:00:01.96 bitrate=   2.3kbits/s speed=0.00923x elapsed=0:03:33.01    \nframe=  239 fps=1.1 q=50.0 size=       1KiB time=00:00:01.98 bitrate=   2.3kbits/s speed=0.00929x elapsed=0:03:33.57    \nframe=  240 fps=1.1 q=52.0 size=       1KiB time=00:00:01.98 bitrate=   2.3kbits/s speed=0.00926x elapsed=0:03:34.15    \nframe=  240 fps=1.1 q=52.0 size=       1KiB time=00:00:01.99 bitrate=   2.2kbits/s speed=0.00928x elapsed=0:03:34.72    \nframe=  241 fps=1.1 q=31.0 size=       1KiB time=00:00:02.00 bitrate=   2.2kbits/s speed=0.00929x elapsed=0:03:35.28    \nframe=  241 fps=1.1 q=31.0 size=       1KiB time=00:00:02.00 bitrate=   2.2kbits/s speed=0.00926x elapsed=0:03:35.87    \nframe=  243 fps=1.1 q=52.0 size=       1KiB time=00:00:02.01 bitrate=   2.2kbits/s speed=0.00932x elapsed=0:03:36.45    \nframe=  243 fps=1.1 q=52.0 size=       1KiB time=00:00:02.01 bitrate=   2.2kbits/s speed=0.00929x elapsed=0:03:37.00    \nframe=  244 fps=1.1 q=53.0 size=       1KiB time=00:00:02.02 bitrate=   2.2kbits/s speed=0.00931x elapsed=0:03:37.56    \nframe=  245 fps=1.1 q=49.0 size=       1KiB time=00:00:02.03 bitrate=   2.2kbits/s speed=0.00932x elapsed=0:03:38.12    \nframe=  246 fps=1.1 q=53.0 size=       1KiB time=00:00:02.04 bitrate=   2.2kbits/s speed=0.00934x elapsed=0:03:38.68    \nframe=  246 fps=1.1 q=53.0 size=       1KiB time=00:00:02.04 bitrate=   2.2kbits/s speed=0.00931x elapsed=0:03:39.25    \nframe=  246 fps=1.1 q=53.0 size=       1KiB time=00:00:02.04 bitrate=   2.2kbits/s speed=0.00929x elapsed=0:03:39.82    \nframe=  247 fps=1.1 q=52.0 size=       1KiB time=00:00:02.05 bitrate=   2.2kbits/s speed=0.0093x elapsed=0:03:40.42    \nframe=  247 fps=1.1 q=52.0 size=       1KiB time=00:00:02.05 bitrate=   2.2kbits/s speed=0.00928x elapsed=0:03:41.00    \nframe=  248 fps=1.1 q=53.0 size=       1KiB time=00:00:02.05 bitrate=   2.2kbits/s speed=0.00929x elapsed=0:03:41.57    \nframe=  249 fps=1.1 q=43.0 size=       1KiB time=00:00:02.05 bitrate=   2.2kbits/s speed=0.00927x elapsed=0:03:42.15    \nframe=  249 fps=1.1 q=43.0 size=       1KiB time=00:00:02.06 bitrate=   2.2kbits/s speed=0.00928x elapsed=0:03:42.73    \nframe=  251 fps=1.1 q=51.0 size=       1KiB time=00:00:02.08 bitrate=   2.2kbits/s speed=0.00933x elapsed=0:03:43.30    \nframe=  252 fps=1.1 q=53.0 size=       1KiB time=00:00:02.09 bitrate=   2.1kbits/s speed=0.00934x elapsed=0:03:43.87    \nframe=  253 fps=1.1 q=47.0 size=       1KiB time=00:00:02.10 bitrate=   2.1kbits/s speed=0.00936x elapsed=0:03:44.45    \nframe=  255 fps=1.1 q=51.0 size=       1KiB time=00:00:02.11 bitrate=   2.1kbits/s speed=0.00941x elapsed=0:03:45.02    \nframe=  256 fps=1.1 q=53.0 size=       1KiB time=00:00:02.12 bitrate=   2.1kbits/s speed=0.00942x elapsed=0:03:45.58    \nframe=  257 fps=1.1 q=32.0 size=       1KiB time=00:00:02.13 bitrate=   2.1kbits/s speed=0.00943x elapsed=0:03:46.13    \nframe=  259 fps=1.1 q=53.0 size=       1KiB time=00:00:02.15 bitrate=   2.1kbits/s speed=0.00948x elapsed=0:03:46.70    \nframe=  260 fps=1.1 q=54.0 size=       1KiB time=00:00:02.15 bitrate=   2.1kbits/s speed=0.0095x elapsed=0:03:47.28    \nframe=  261 fps=1.1 q=50.0 size=       1KiB time=00:00:02.16 bitrate=   2.1kbits/s speed=0.00951x elapsed=0:03:47.84    \nframe=  262 fps=1.1 q=54.0 size=       1KiB time=00:00:02.17 bitrate=   2.1kbits/s speed=0.00952x elapsed=0:03:48.41    \nframe=  262 fps=1.1 q=54.0 size=       1KiB time=00:00:02.17 bitrate=   2.1kbits/s speed=0.0095x elapsed=0:03:48.97    \nframe=  263 fps=1.1 q=53.0 size=       1KiB time=00:00:02.18 bitrate=   2.1kbits/s speed=0.00951x elapsed=0:03:49.52    \nframe=  264 fps=1.1 q=54.0 size=       1KiB time=00:00:02.19 bitrate=   2.0kbits/s speed=0.00953x elapsed=0:03:50.08    \nframe=  266 fps=1.2 q=54.0 size=       1KiB time=00:00:02.20 bitrate=   2.0kbits/s speed=0.00958x elapsed=0:03:50.63    \nframe=  267 fps=1.2 q=52.0 size=       1KiB time=00:00:02.21 bitrate=   2.0kbits/s speed=0.00959x elapsed=0:03:51.18    \nframe=  269 fps=1.2 q=49.0 size=       1KiB time=00:00:02.22 bitrate=   2.0kbits/s speed=0.0096x elapsed=0:03:51.74    \nframe=  269 fps=1.2 q=49.0 size=       1KiB time=00:00:02.23 bitrate=   2.0kbits/s speed=0.00961x elapsed=0:03:52.33    \nframe=  271 fps=1.2 q=52.0 size=       1KiB time=00:00:02.25 bitrate=   2.0kbits/s speed=0.00966x elapsed=0:03:52.92    \nframe=  272 fps=1.2 q=54.0 size=       1KiB time=00:00:02.25 bitrate=   2.0kbits/s speed=0.00967x elapsed=0:03:53.50    \nframe=  273 fps=1.2 q=34.0 size=       1KiB time=00:00:02.26 bitrate=   2.0kbits/s speed=0.00968x elapsed=0:03:54.08    \nframe=  274 fps=1.2 q=54.0 size=       1KiB time=00:00:02.27 bitrate=   2.0kbits/s speed=0.0097x elapsed=0:03:54.63    \nframe=  276 fps=1.2 q=54.0 size=       1KiB time=00:00:02.29 bitrate=   2.0kbits/s speed=0.00974x elapsed=0:03:55.18    \nframe=  278 fps=1.2 q=54.0 size=       1KiB time=00:00:02.30 bitrate=   1.9kbits/s speed=0.00979x elapsed=0:03:55.74    \nframe=  278 fps=1.2 q=54.0 size=       1KiB time=00:00:02.30 bitrate=   1.9kbits/s speed=0.00977x elapsed=0:03:56.31    \nframe=  279 fps=1.2 q=53.0 size=       1KiB time=00:00:02.31 bitrate=   1.9kbits/s speed=0.00978x elapsed=0:03:56.87    \nframe=  280 fps=1.2 q=54.0 size=       1KiB time=00:00:02.32 bitrate=   1.9kbits/s speed=0.00979x elapsed=0:03:57.43    \nframe=  280 fps=1.2 q=54.0 size=       1KiB time=00:00:02.32 bitrate=   1.9kbits/s speed=0.00977x elapsed=0:03:58.02    \nframe=  281 fps=1.2 q=46.0 size=       1KiB time=00:00:02.33 bitrate=   1.9kbits/s speed=0.00978x elapsed=0:03:58.59    \nframe=  283 fps=1.2 q=52.0 size=       1KiB time=00:00:02.35 bitrate=   1.9kbits/s speed=0.00983x elapsed=0:03:59.17    \nframe=  284 fps=1.2 q=54.0 size=       1KiB time=00:00:02.35 bitrate=   1.9kbits/s speed=0.00984x elapsed=0:03:59.74    \nframe=  285 fps=1.2 q=49.0 size=       1KiB time=00:00:02.36 bitrate=   1.9kbits/s speed=0.00985x elapsed=0:04:00.31    \nframe=  287 fps=1.2 q=52.0 size=       1KiB time=00:00:02.38 bitrate=   1.9kbits/s speed=0.00989x elapsed=0:04:00.91    \nframe=  287 fps=1.2 q=52.0 size=       1KiB time=00:00:02.38 bitrate=   1.9kbits/s speed=0.00987x elapsed=0:04:01.49    \nframe=  288 fps=1.2 q=54.0 size=       1KiB time=00:00:02.39 bitrate=   1.9kbits/s speed=0.00988x elapsed=0:04:02.06    \nframe=  288 fps=1.2 q=54.0 size=       1KiB time=00:00:02.39 bitrate=   1.9kbits/s speed=0.00986x elapsed=0:04:02.64    \nframe=  289 fps=1.2 q=36.0 size=       1KiB time=00:00:02.40 bitrate=   1.9kbits/s speed=0.00987x elapsed=0:04:03.21    \nframe=  291 fps=1.2 q=53.0 size=       1KiB time=00:00:02.41 bitrate=   1.9kbits/s speed=0.00991x elapsed=0:04:03.77    \nframe=  291 fps=1.2 q=53.0 size=       1KiB time=00:00:02.41 bitrate=   1.9kbits/s speed=0.00989x elapsed=0:04:04.35    \nframe=  292 fps=1.2 q=54.0 size=       1KiB time=00:00:02.42 bitrate=   1.8kbits/s speed=0.0099x elapsed=0:04:04.89    \nframe=  293 fps=1.2 q=51.0 size=       1KiB time=00:00:02.42 bitrate=   1.8kbits/s speed=0.00988x elapsed=0:04:05.46    \nframe=  293 fps=1.2 q=51.0 size=       1KiB time=00:00:02.43 bitrate=   1.8kbits/s speed=0.00989x elapsed=0:04:06.04    \nframe=  294 fps=1.2 q=53.0 size=       1KiB time=00:00:02.44 bitrate=   1.8kbits/s speed=0.0099x elapsed=0:04:06.62    \nframe=  294 fps=1.2 q=53.0 size=       1KiB time=00:00:02.44 bitrate=   1.8kbits/s speed=0.00988x elapsed=0:04:07.21    \nframe=  294 fps=1.2 q=53.0 size=       1KiB time=00:00:02.44 bitrate=   1.8kbits/s speed=0.00985x elapsed=0:04:07.76    \nframe=  295 fps=1.2 q=50.0 size=       1KiB time=00:00:02.45 bitrate=   1.8kbits/s speed=0.00987x elapsed=0:04:08.32    \nframe=  295 fps=1.2 q=50.0 size=       1KiB time=00:00:02.45 bitrate=   1.8kbits/s speed=0.00984x elapsed=0:04:08.91    \nframe=  296 fps=1.2 q=53.0 size=       1KiB time=00:00:02.45 bitrate=   1.8kbits/s speed=0.00985x elapsed=0:04:09.48    \nframe=  297 fps=1.2 q=46.0 size=       1KiB time=00:00:02.46 bitrate=   1.8kbits/s speed=0.00987x elapsed=0:04:10.03    \nframe=  298 fps=1.2 q=54.0 size=       1KiB time=00:00:02.47 bitrate=   1.8kbits/s speed=0.00988x elapsed=0:04:10.59    \nframe=  299 fps=1.2 q=52.0 size=       1KiB time=00:00:02.48 bitrate=   1.8kbits/s speed=0.00989x elapsed=0:04:11.14    \nframe=  300 fps=1.2 q=54.0 size=       1KiB time=00:00:02.49 bitrate=   1.8kbits/s speed=0.0099x elapsed=0:04:11.69    \nframe=  301 fps=1.2 q=49.0 size=       1KiB time=00:00:02.50 bitrate=   1.8kbits/s speed=0.00991x elapsed=0:04:12.24    \nframe=  303 fps=1.2 q=51.0 size=       1KiB time=00:00:02.51 bitrate=   1.8kbits/s speed=0.00996x elapsed=0:04:12.78    \nframe=  304 fps=1.2 q=54.0 size=       1KiB time=00:00:02.52 bitrate=   1.8kbits/s speed=0.00997x elapsed=0:04:13.31    \nframe=  305 fps=1.2 q=37.0 size=       1KiB time=00:00:02.53 bitrate=   1.8kbits/s speed=0.00998x elapsed=0:04:13.86    \nframe=  306 fps=1.2 q=54.0 size=       1KiB time=00:00:02.54 bitrate=   1.8kbits/s speed=0.00999x elapsed=0:04:14.43    \nframe=  307 fps=1.2 q=53.0 size=       1KiB time=00:00:02.55 bitrate=   1.8kbits/s speed=0.01x elapsed=0:04:15.01    \nframe=  307 fps=1.2 q=53.0 size=       1KiB time=00:00:02.55 bitrate=   1.8kbits/s speed=0.00998x elapsed=0:04:15.57    \nframe=  308 fps=1.2 q=54.0 size=       1KiB time=00:00:02.55 bitrate=   1.8kbits/s speed=0.00999x elapsed=0:04:16.14    \nframe=  309 fps=1.2 q=51.0 size=       1KiB time=00:00:02.55 bitrate=   1.8kbits/s speed=0.00997x elapsed=0:04:16.72    \nframe=  310 fps=1.2 q=55.0 size=       1KiB time=00:00:02.57 bitrate=   1.7kbits/s speed=0.01x elapsed=0:04:17.27    \nframe=  310 fps=1.2 q=55.0 size=       1KiB time=00:00:02.57 bitrate=   1.7kbits/s speed=0.00999x elapsed=0:04:17.81    \nframe=  310 fps=1.2 q=55.0 size=       1KiB time=00:00:02.57 bitrate=   1.7kbits/s speed=0.00997x elapsed=0:04:18.36    \nframe=  311 fps=1.2 q=49.0 size=       1KiB time=00:00:02.58 bitrate=   1.7kbits/s speed=0.00998x elapsed=0:04:18.91    \nframe=  311 fps=1.2 q=49.0 size=       1KiB time=00:00:02.58 bitrate=   1.7kbits/s speed=0.00995x elapsed=0:04:19.50    \nframe=  312 fps=1.2 q=55.0 size=       1KiB time=00:00:02.59 bitrate=   1.7kbits/s speed=0.00996x elapsed=0:04:20.10    \nframe=  312 fps=1.2 q=55.0 size=       1KiB time=00:00:02.59 bitrate=   1.7kbits/s speed=0.00994x elapsed=0:04:20.68    \nframe=  314 fps=1.2 q=55.0 size=       1KiB time=00:00:02.60 bitrate=   1.7kbits/s speed=0.00998x elapsed=0:04:21.25    \nframe=  315 fps=1.2 q=52.0 size=       1KiB time=00:00:02.61 bitrate=   1.7kbits/s speed=0.00999x elapsed=0:04:21.82    \nframe=  315 fps=1.2 q=52.0 size=       1KiB time=00:00:02.61 bitrate=   1.7kbits/s speed=0.00997x elapsed=0:04:22.38    \nframe=  317 fps=1.2 q=48.0 size=       1KiB time=00:00:02.62 bitrate=   1.7kbits/s speed=0.00998x elapsed=0:04:22.95    \nframe=  317 fps=1.2 q=48.0 size=       1KiB time=00:00:02.63 bitrate=   1.7kbits/s speed=0.00999x elapsed=0:04:23.53    \nframe=  319 fps=1.2 q=51.0 size=       1KiB time=00:00:02.65 bitrate=   1.7kbits/s speed=0.01x elapsed=0:04:24.11    \nframe=  319 fps=1.2 q=51.0 size=       1KiB time=00:00:02.65 bitrate=   1.7kbits/s speed=0.01x elapsed=0:04:24.68    \nframe=  320 fps=1.2 q=54.0 size=       1KiB time=00:00:02.65 bitrate=   1.7kbits/s speed=0.01x elapsed=0:04:25.24    \nframe=  322 fps=1.2 q=54.0 size=       1KiB time=00:00:02.66 bitrate=   1.7kbits/s speed=0.01x elapsed=0:04:25.79    \nframe=  322 fps=1.2 q=54.0 size=       1KiB time=00:00:02.67 bitrate=   1.7kbits/s speed=0.01x elapsed=0:04:26.36    \nframe=  323 fps=1.2 q=53.0 size=       1KiB time=00:00:02.68 bitrate=   1.7kbits/s speed=0.0101x elapsed=0:04:26.94    \nframe=  323 fps=1.2 q=53.0 size=       1KiB time=00:00:02.68 bitrate=   1.7kbits/s speed=0.01x elapsed=0:04:27.52    \nframe=  324 fps=1.2 q=54.0 size=       1KiB time=00:00:02.69 bitrate=   1.7kbits/s speed=0.01x elapsed=0:04:28.09    \nframe=  325 fps=1.2 q=51.0 size=       1KiB time=00:00:02.70 bitrate=   1.7kbits/s speed=0.0101x elapsed=0:04:28.64    \nframe=  326 fps=1.2 q=54.0 size=       1KiB time=00:00:02.70 bitrate=   1.7kbits/s speed=0.0101x elapsed=0:04:29.20    \nframe=  326 fps=1.2 q=54.0 size=       1KiB time=00:00:02.70 bitrate=   1.7kbits/s speed=0.01x elapsed=0:04:29.75    \nframe=  327 fps=1.2 q=48.0 size=       1KiB time=00:00:02.70 bitrate=   1.7kbits/s speed=0.01x elapsed=0:04:30.32    \nframe=  327 fps=1.2 q=48.0 size=       1KiB time=00:00:02.71 bitrate=   1.6kbits/s speed=0.01x elapsed=0:04:30.89    \nframe=  328 fps=1.2 q=54.0 size=       1KiB time=00:00:02.72 bitrate=   1.6kbits/s speed=0.01x elapsed=0:04:31.46    \nframe=  329 fps=1.2 q=47.0 size=       1KiB time=00:00:02.73 bitrate=   1.6kbits/s speed=0.01x elapsed=0:04:32.04    \nframe=  331 fps=1.2 q=51.0 size=       1KiB time=00:00:02.75 bitrate=   1.6kbits/s speed=0.0101x elapsed=0:04:32.61    \nframe=  331 fps=1.2 q=51.0 size=       1KiB time=00:00:02.75 bitrate=   1.6kbits/s speed=0.0101x elapsed=0:04:33.17    \nframe=  332 fps=1.2 q=54.0 size=       1KiB time=00:00:02.75 bitrate=   1.6kbits/s speed=0.0101x elapsed=0:04:33.76    \nframe=  333 fps=1.2 q=47.0 size=       1KiB time=00:00:02.76 bitrate=   1.6kbits/s speed=0.0101x elapsed=0:04:34.35    \nframe=  334 fps=1.2 q=54.0 size=       1KiB time=00:00:02.77 bitrate=   1.6kbits/s speed=0.0101x elapsed=0:04:34.93    \nframe=  335 fps=1.2 q=50.0 size=       1KiB time=00:00:02.78 bitrate=   1.6kbits/s speed=0.0101x elapsed=0:04:35.49    \nframe=  336 fps=1.2 q=54.0 size=       1KiB time=00:00:02.79 bitrate=   1.6kbits/s speed=0.0101x elapsed=0:04:36.07    \nframe=  337 fps=1.2 q=35.0 size=       1KiB time=00:00:02.80 bitrate=   1.6kbits/s speed=0.0101x elapsed=0:04:36.63    \nframe=  339 fps=1.2 q=52.0 size=       1KiB time=00:00:02.81 bitrate=   1.6kbits/s speed=0.0102x elapsed=0:04:37.19    \nframe=  339 fps=1.2 q=52.0 size=       1KiB time=00:00:02.81 bitrate=   1.6kbits/s speed=0.0101x elapsed=0:04:37.74    \nframe=  340 fps=1.2 q=54.0 size=       1KiB time=00:00:02.82 bitrate=   1.6kbits/s speed=0.0102x elapsed=0:04:38.30    \nframe=  341 fps=1.2 q=50.0 size=       1KiB time=00:00:02.83 bitrate=   1.6kbits/s speed=0.0102x elapsed=0:04:38.85    \nframe=  342 fps=1.2 q=54.0 size=       1KiB time=00:00:02.84 bitrate=   1.6kbits/s speed=0.0102x elapsed=0:04:39.44    \nframe=  342 fps=1.2 q=54.0 size=       1KiB time=00:00:02.84 bitrate=   1.6kbits/s speed=0.0101x elapsed=0:04:40.01    \nframe=  343 fps=1.2 q=48.0 size=       1KiB time=00:00:02.85 bitrate=   1.6kbits/s speed=0.0102x elapsed=0:04:40.59    \nframe=  343 fps=1.2 q=48.0 size=       1KiB time=00:00:02.85 bitrate=   1.6kbits/s speed=0.0101x elapsed=0:04:41.18    \nframe=  344 fps=1.2 q=54.0 size=       1KiB time=00:00:02.85 bitrate=   1.6kbits/s speed=0.0101x elapsed=0:04:41.76    \nframe=  346 fps=1.2 q=54.0 size=       1KiB time=00:00:02.87 bitrate=   1.6kbits/s speed=0.0102x elapsed=0:04:42.30    \nframe=  347 fps=1.2 q=51.0 size=       1KiB time=00:00:02.88 bitrate=   1.6kbits/s speed=0.0102x elapsed=0:04:42.87    \nframe=  348 fps=1.2 q=54.0 size=       1KiB time=00:00:02.89 bitrate=   1.5kbits/s speed=0.0102x elapsed=0:04:43.43    \nframe=  350 fps=1.2 q=54.0 size=       1KiB time=00:00:02.90 bitrate=   1.5kbits/s speed=0.0102x elapsed=0:04:44.00    \nframe=  352 fps=1.2 q=54.0 size=       1KiB time=00:00:02.92 bitrate=   1.5kbits/s speed=0.0103x elapsed=0:04:44.56    \nframe=  353 fps=1.2 q=35.0 size=       1KiB time=00:00:02.92 bitrate=   1.5kbits/s speed=0.0103x elapsed=0:04:45.12    \nframe=  354 fps=1.2 q=53.0 size=       1KiB time=00:00:02.94 bitrate=   1.5kbits/s speed=0.0103x elapsed=0:04:45.68    \nframe=  355 fps=1.2 q=52.0 size=       1KiB time=00:00:02.95 bitrate=   1.5kbits/s speed=0.0103x elapsed=0:04:46.24    \nframe=  355 fps=1.2 q=52.0 size=       1KiB time=00:00:02.95 bitrate=   1.5kbits/s speed=0.0103x elapsed=0:04:46.82    \nframe=  356 fps=1.2 q=53.0 size=       1KiB time=00:00:02.95 bitrate=   1.5kbits/s speed=0.0103x elapsed=0:04:47.39    \nframe=  358 fps=1.2 q=54.0 size=       1KiB time=00:00:02.97 bitrate=   1.5kbits/s speed=0.0103x elapsed=0:04:47.96    \nframe=  358 fps=1.2 q=54.0 size=       1KiB time=00:00:02.97 bitrate=   1.5kbits/s speed=0.0103x elapsed=0:04:48.53    \nframe=  359 fps=1.2 q=52.0 size=       1KiB time=00:00:02.98 bitrate=   1.5kbits/s speed=0.0103x elapsed=0:04:49.08    \nframe=  359 fps=1.2 q=52.0 size=       1KiB time=00:00:02.98 bitrate=   1.5kbits/s speed=0.0103x elapsed=0:04:49.67    \nframe=  361 fps=1.2 q=46.0 size=       1KiB time=00:00:02.99 bitrate=   1.5kbits/s speed=0.0103x elapsed=0:04:50.23    \nframe=  362 fps=1.2 q=54.0 size=       1KiB time=00:00:03.00 bitrate=   1.5kbits/s speed=0.0103x elapsed=0:04:50.81    \nframe=  363 fps=1.2 q=51.0 size=       1KiB time=00:00:03.01 bitrate=   1.5kbits/s speed=0.0104x elapsed=0:04:51.38    \nframe=  364 fps=1.2 q=53.0 size=       1KiB time=00:00:03.01 bitrate=   1.5kbits/s speed=0.0103x elapsed=0:04:51.98    \nframe=  364 fps=1.2 q=53.0 size=       1KiB time=00:00:03.02 bitrate=   1.5kbits/s speed=0.0103x elapsed=0:04:52.55    \nframe=  367 fps=1.3 q=50.0 size=       1KiB time=00:00:03.04 bitrate=   1.5kbits/s speed=0.0104x elapsed=0:04:53.12    \nframe=  368 fps=1.3 q=53.0 size=       1KiB time=00:00:03.05 bitrate=   1.5kbits/s speed=0.0104x elapsed=0:04:53.69    \nframe=  369 fps=1.3 q=34.0 size=       1KiB time=00:00:03.06 bitrate=   1.5kbits/s speed=0.0104x elapsed=0:04:54.27    \nframe=  370 fps=1.3 q=53.0 size=       1KiB time=00:00:03.07 bitrate=   1.5kbits/s speed=0.0104x elapsed=0:04:54.84    \nframe=  371 fps=1.3 q=52.0 size=       1KiB time=00:00:03.08 bitrate=   1.5kbits/s speed=0.0104x elapsed=0:04:55.44    \nframe=  371 fps=1.3 q=52.0 size=       1KiB time=00:00:03.08 bitrate=   1.5kbits/s speed=0.0104x elapsed=0:04:56.03    \nframe=  372 fps=1.3 q=53.0 size=       1KiB time=00:00:03.09 bitrate=   1.4kbits/s speed=0.0104x elapsed=0:04:56.61    \nframe=  373 fps=1.3 q=50.0 size=       1KiB time=00:00:03.10 bitrate=   1.4kbits/s speed=0.0104x elapsed=0:04:57.18    \nframe=  374 fps=1.3 q=53.0 size=       1KiB time=00:00:03.10 bitrate=   1.4kbits/s speed=0.0104x elapsed=0:04:57.76    \nframe=  374 fps=1.3 q=53.0 size=       1KiB time=00:00:03.10 bitrate=   1.4kbits/s speed=0.0104x elapsed=0:04:58.34    \nframe=  375 fps=1.3 q=52.0 size=       1KiB time=00:00:03.11 bitrate=   1.4kbits/s speed=0.0104x elapsed=0:04:58.92    \nframe=  375 fps=1.3 q=52.0 size=       1KiB time=00:00:03.11 bitrate=   1.4kbits/s speed=0.0104x elapsed=0:04:59.50    \nframe=  377 fps=1.3 q=46.0 size=       1KiB time=00:00:03.13 bitrate=   1.4kbits/s speed=0.0104x elapsed=0:05:00.06    \nframe=  379 fps=1.3 q=50.0 size=       1KiB time=00:00:03.15 bitrate=   1.4kbits/s speed=0.0105x elapsed=0:05:00.63    \nframe=  379 fps=1.3 q=50.0 size=       1KiB time=00:00:03.15 bitrate=   1.4kbits/s speed=0.0105x elapsed=0:05:01.19    \nframe=  381 fps=1.3 q=47.0 size=       1KiB time=00:00:03.16 bitrate=   1.4kbits/s speed=0.0105x elapsed=0:05:01.75    \nframe=  383 fps=1.3 q=50.0 size=       1KiB time=00:00:03.18 bitrate=   1.4kbits/s speed=0.0105x elapsed=0:05:02.29    \nframe=  385 fps=1.3 q=34.0 size=       1KiB time=00:00:03.20 bitrate=   1.4kbits/s speed=0.0106x elapsed=0:05:02.85    \nframe=  387 fps=1.3 q=52.0 size=       1KiB time=00:00:03.21 bitrate=   1.4kbits/s speed=0.0106x elapsed=0:05:03.40    \nframe=  388 fps=1.3 q=53.0 size=       1KiB time=00:00:03.22 bitrate=   1.4kbits/s speed=0.0106x elapsed=0:05:03.95    \nframe=  389 fps=1.3 q=50.0 size=       1KiB time=00:00:03.23 bitrate=   1.4kbits/s speed=0.0106x elapsed=0:05:04.51    \nframe=  390 fps=1.3 q=53.0 size=       1KiB time=00:00:03.24 bitrate=   1.4kbits/s speed=0.0106x elapsed=0:05:05.07    \nframe=  391 fps=1.3 q=52.0 size=       1KiB time=00:00:03.25 bitrate=   1.4kbits/s speed=0.0106x elapsed=0:05:05.63    \nframe=  391 fps=1.3 q=52.0 size=       1KiB time=00:00:03.25 bitrate=   1.4kbits/s speed=0.0106x elapsed=0:05:06.22    \nframe=  394 fps=1.3 q=52.0 size=       1KiB time=00:00:03.27 bitrate=   1.4kbits/s speed=0.0107x elapsed=0:05:06.78    \nframe=  394 fps=1.3 q=52.0 size=       1KiB time=00:00:03.27 bitrate=   1.4kbits/s speed=0.0107x elapsed=0:05:07.37    \nframe=  395 fps=1.3 q=50.0 size=       1KiB time=00:00:03.28 bitrate=   1.4kbits/s speed=0.0107x elapsed=0:05:07.95    \nframe=  396 fps=1.3 q=49.0 size=       1KiB time=00:00:03.29 bitrate=   1.4kbits/s speed=0.0107x elapsed=0:05:08.52    \nframe=  400 fps=1.3 q=51.0 size=       1KiB time=00:00:03.30 bitrate=   1.4kbits/s speed=0.0107x elapsed=0:05:09.12    \nframe=  401 fps=1.3 q=34.0 size=       1KiB time=00:00:03.32 bitrate=   1.3kbits/s speed=0.0107x elapsed=0:05:09.70    \nframe=  402 fps=1.3 q=52.0 size=       1KiB time=00:00:03.34 bitrate=   1.3kbits/s speed=0.0108x elapsed=0:05:10.27    \nframe=  403 fps=1.3 q=51.0 size=       1KiB time=00:00:03.35 bitrate=   1.3kbits/s speed=0.0108x elapsed=0:05:10.85    \nframe=  404 fps=1.3 q=52.0 size=       1KiB time=00:00:03.35 bitrate=   1.3kbits/s speed=0.0108x elapsed=0:05:11.41    \nframe=  406 fps=1.3 q=50.0 size=       1KiB time=00:00:03.37 bitrate=   1.3kbits/s speed=0.0108x elapsed=0:05:11.97    \nframe=  407 fps=1.3 q=47.0 size=       1KiB time=00:00:03.38 bitrate=   1.3kbits/s speed=0.0108x elapsed=0:05:12.51    \nframe=  410 fps=1.3 q=52.0 size=       1KiB time=00:00:03.40 bitrate=   1.3kbits/s speed=0.0109x elapsed=0:05:13.07    \nframe=  411 fps=1.3 q=50.0 size=       1KiB time=00:00:03.41 bitrate=   1.3kbits/s speed=0.0109x elapsed=0:05:13.62    \nframe=  413 fps=1.3 q=46.0 size=       1KiB time=00:00:03.43 bitrate=   1.3kbits/s speed=0.0109x elapsed=0:05:14.20    \nframe=  416 fps=1.3 q=51.0 size=       1KiB time=00:00:03.45 bitrate=   1.3kbits/s speed=0.011x elapsed=0:05:14.78    \nframe=  418 fps=1.3 q=52.0 size=       1KiB time=00:00:03.47 bitrate=   1.3kbits/s speed=0.011x elapsed=0:05:15.34    \nframe=  419 fps=1.3 q=51.0 size=       1KiB time=00:00:03.48 bitrate=   1.3kbits/s speed=0.011x elapsed=0:05:15.89    \nframe=  420 fps=1.3 q=52.0 size=       1KiB time=00:00:03.49 bitrate=   1.3kbits/s speed=0.011x elapsed=0:05:16.43    \nframe=  422 fps=1.3 q=49.0 size=       1KiB time=00:00:03.50 bitrate=   1.3kbits/s speed=0.0111x elapsed=0:05:16.98    \nframe=  423 fps=1.3 q=44.0 size=       1KiB time=00:00:03.51 bitrate=   1.3kbits/s speed=0.0111x elapsed=0:05:17.53    \nframe=  423 fps=1.3 q=44.0 size=       1KiB time=00:00:03.51 bitrate=   1.3kbits/s speed=0.0111x elapsed=0:05:18.09    \nframe=  425 fps=1.3 q=44.0 size=       1KiB time=00:00:03.53 bitrate=   1.3kbits/s speed=0.0111x elapsed=0:05:18.67    \nframe=  427 fps=1.3 q=50.0 size=       1KiB time=00:00:03.54 bitrate=   1.3kbits/s speed=0.0111x elapsed=0:05:19.26    \nframe=  427 fps=1.3 q=50.0 size=       1KiB time=00:00:03.55 bitrate=   1.3kbits/s speed=0.0111x elapsed=0:05:19.83    \nframe=  428 fps=1.3 q=48.0 size=       1KiB time=00:00:03.55 bitrate=   1.3kbits/s speed=0.0111x elapsed=0:05:20.40    \nframe=  431 fps=1.3 q=48.0 size=       1KiB time=00:00:03.57 bitrate=   1.3kbits/s speed=0.0111x elapsed=0:05:20.99    \nframe=  433 fps=1.3 q=34.0 size=       1KiB time=00:00:03.59 bitrate=   1.2kbits/s speed=0.0112x elapsed=0:05:21.56    \nframe=  434 fps=1.3 q=51.0 size=       1KiB time=00:00:03.60 bitrate=   1.2kbits/s speed=0.0112x elapsed=0:05:22.12    \nframe=  435 fps=1.3 q=50.0 size=       1KiB time=00:00:03.61 bitrate=   1.2kbits/s speed=0.0112x elapsed=0:05:22.68    \nframe=  435 fps=1.3 q=50.0 size=       1KiB time=00:00:03.61 bitrate=   1.2kbits/s speed=0.0112x elapsed=0:05:23.24    \nframe=  437 fps=1.3 q=48.0 size=       1KiB time=00:00:03.63 bitrate=   1.2kbits/s speed=0.0112x elapsed=0:05:23.78    \nframe=  438 fps=1.4 q=48.0 size=       1KiB time=00:00:03.64 bitrate=   1.2kbits/s speed=0.0112x elapsed=0:05:24.34    \nframe=  439 fps=1.4 q=43.0 size=       1KiB time=00:00:03.65 bitrate=   1.2kbits/s speed=0.0112x elapsed=0:05:24.89    \nframe=  441 fps=1.4 q=43.0 size=       1KiB time=00:00:03.66 bitrate=   1.2kbits/s speed=0.0113x elapsed=0:05:25.44    \nframe=  443 fps=1.4 q=49.0 size=       1KiB time=00:00:03.68 bitrate=   1.2kbits/s speed=0.0113x elapsed=0:05:25.99    \nframe=  443 fps=1.4 q=49.0 size=       1KiB time=00:00:03.68 bitrate=   1.2kbits/s speed=0.0113x elapsed=0:05:26.54    \nframe=  444 fps=1.4 q=47.0 size=       1KiB time=00:00:03.69 bitrate=   1.2kbits/s speed=0.0113x elapsed=0:05:27.14    \nframe=  446 fps=1.4 q=50.0 size=       1KiB time=00:00:03.70 bitrate=   1.2kbits/s speed=0.0113x elapsed=0:05:27.72    \nframe=  448 fps=1.4 q=50.0 size=       1KiB time=00:00:03.72 bitrate=   1.2kbits/s speed=0.0113x elapsed=0:05:28.28    \nframe=  450 fps=1.4 q=51.0 size=       1KiB time=00:00:03.74 bitrate=   1.2kbits/s speed=0.0114x elapsed=0:05:28.86    \nframe=  451 fps=1.4 q=50.0 size=       1KiB time=00:00:03.75 bitrate=   1.2kbits/s speed=0.0114x elapsed=0:05:29.44    \nframe=  453 fps=1.4 q=47.0 size=       1KiB time=00:00:03.76 bitrate=   1.2kbits/s speed=0.0114x elapsed=0:05:30.01    \nframe=  454 fps=1.4 q=51.0 size=       1KiB time=00:00:03.77 bitrate=   1.2kbits/s speed=0.0114x elapsed=0:05:30.56    \nframe=  455 fps=1.4 q=50.0 size=       1KiB time=00:00:03.78 bitrate=   1.2kbits/s speed=0.0114x elapsed=0:05:31.12    \nframe=  456 fps=1.4 q=51.0 size=       1KiB time=00:00:03.79 bitrate=   1.2kbits/s speed=0.0114x elapsed=0:05:31.68    \nframe=  458 fps=1.4 q=51.0 size=       1KiB time=00:00:03.80 bitrate=   1.2kbits/s speed=0.0115x elapsed=0:05:32.26    \nframe=  459 fps=1.4 q=49.0 size=       1KiB time=00:00:03.81 bitrate=   1.2kbits/s speed=0.0115x elapsed=0:05:32.84    \nframe=  460 fps=1.4 q=47.0 size=       1KiB time=00:00:03.82 bitrate=   1.2kbits/s speed=0.0115x elapsed=0:05:33.41    \nframe=  463 fps=1.4 q=47.0 size=       1KiB time=00:00:03.85 bitrate=   1.2kbits/s speed=0.0115x elapsed=0:05:33.98    \nframe=  466 fps=1.4 q=51.0 size=       1KiB time=00:00:03.87 bitrate=   1.2kbits/s speed=0.0116x elapsed=0:05:34.53    \nframe=  467 fps=1.4 q=50.0 size=       1KiB time=00:00:03.88 bitrate=   1.2kbits/s speed=0.0116x elapsed=0:05:35.09    \nframe=  469 fps=1.4 q=47.0 size=       1KiB time=00:00:03.90 bitrate=   1.1kbits/s speed=0.0116x elapsed=0:05:35.64    \nframe=  471 fps=1.4 q=45.0 size=       1KiB time=00:00:03.91 bitrate=   1.1kbits/s speed=0.0116x elapsed=0:05:36.19    \nframe=  472 fps=1.4 q=49.0 size=       1KiB time=00:00:03.92 bitrate=   1.1kbits/s speed=0.0117x elapsed=0:05:36.78    \nframe=  474 fps=1.4 q=51.0 size=       1KiB time=00:00:03.94 bitrate=   1.1kbits/s speed=0.0117x elapsed=0:05:37.35    \nframe=  476 fps=1.4 q=51.0 size=       1KiB time=00:00:03.95 bitrate=   1.1kbits/s speed=0.0117x elapsed=0:05:37.89    \nframe=  477 fps=1.4 q=45.0 size=       1KiB time=00:00:03.96 bitrate=   1.1kbits/s speed=0.0117x elapsed=0:05:38.46    \nframe=  479 fps=1.4 q=47.0 size=       1KiB time=00:00:03.98 bitrate=   1.1kbits/s speed=0.0117x elapsed=0:05:39.05    \nframe=  481 fps=1.4 q=32.0 size=       1KiB time=00:00:03.99 bitrate=   1.1kbits/s speed=0.0118x elapsed=0:05:39.61    \nframe=  483 fps=1.4 q=50.0 size=       1KiB time=00:00:04.01 bitrate=   1.1kbits/s speed=0.0118x elapsed=0:05:40.15    \nframe=  484 fps=1.4 q=51.0 size=       1KiB time=00:00:04.02 bitrate=   1.1kbits/s speed=0.0118x elapsed=0:05:40.73    \nframe=  485 fps=1.4 q=47.0 size=       1KiB time=00:00:04.03 bitrate=   1.1kbits/s speed=0.0118x elapsed=0:05:41.34    \nframe=  486 fps=1.4 q=47.0 size=       1KiB time=00:00:04.04 bitrate=   1.1kbits/s speed=0.0118x elapsed=0:05:41.92    \nframe=  487 fps=1.4 q=42.0 size=       1KiB time=00:00:04.04 bitrate=   1.1kbits/s speed=0.0118x elapsed=0:05:42.49    \nframe=  487 fps=1.4 q=42.0 size=       1KiB time=00:00:04.05 bitrate=   1.1kbits/s speed=0.0118x elapsed=0:05:43.08    \nframe=  488 fps=1.4 q=47.0 size=       1KiB time=00:00:04.05 bitrate=   1.1kbits/s speed=0.0118x elapsed=0:05:43.67    \nframe=  490 fps=1.4 q=51.0 size=       1KiB time=00:00:04.06 bitrate=   1.1kbits/s speed=0.0118x elapsed=0:05:44.26    \nframe=  491 fps=1.4 q=49.0 size=       1KiB time=00:00:04.08 bitrate=   1.1kbits/s speed=0.0118x elapsed=0:05:44.83    \nframe=  493 fps=1.4 q=45.0 size=       1KiB time=00:00:04.10 bitrate=   1.1kbits/s speed=0.0119x elapsed=0:05:45.39    \nframe=  495 fps=1.4 q=49.0 size=       1KiB time=00:00:04.11 bitrate=   1.1kbits/s speed=0.0119x elapsed=0:05:45.96    \nframe=  497 fps=1.4 q=32.0 size=       1KiB time=00:00:04.13 bitrate=   1.1kbits/s speed=0.0119x elapsed=0:05:46.52    \nframe=  499 fps=1.4 q=51.0 size=       1KiB time=00:00:04.15 bitrate=   1.1kbits/s speed=0.012x elapsed=0:05:47.10    \nframe=  501 fps=1.4 q=48.0 size=       1KiB time=00:00:04.16 bitrate=   1.1kbits/s speed=0.012x elapsed=0:05:47.65    \nframe=  502 fps=1.4 q=52.0 size=       1KiB time=00:00:04.17 bitrate=   1.1kbits/s speed=0.012x elapsed=0:05:48.23    \nframe=  505 fps=1.4 q=42.0 size=       1KiB time=00:00:04.20 bitrate=   1.1kbits/s speed=0.012x elapsed=0:05:48.79    \nframe=  505 fps=1.4 q=42.0 size=       1KiB time=00:00:04.20 bitrate=   1.1kbits/s speed=0.012x elapsed=0:05:49.41    \nframe=  507 fps=1.4 q=49.0 size=       1KiB time=00:00:04.21 bitrate=   1.1kbits/s speed=0.012x elapsed=0:05:50.01    \nframe=  509 fps=1.5 q=45.0 size=       1KiB time=00:00:04.23 bitrate=   1.1kbits/s speed=0.0121x elapsed=0:05:50.59    \nframe=  511 fps=1.5 q=48.0 size=       1KiB time=00:00:04.25 bitrate=   1.1kbits/s speed=0.0121x elapsed=0:05:51.16    \nframe=  513 fps=1.5 q=32.0 size=       1KiB time=00:00:04.26 bitrate=   1.0kbits/s speed=0.0121x elapsed=0:05:51.75    \nframe=  515 fps=1.5 q=51.0 size=       1KiB time=00:00:04.28 bitrate=   1.0kbits/s speed=0.0122x elapsed=0:05:52.32    \nframe=  517 fps=1.5 q=48.0 size=       1KiB time=00:00:04.30 bitrate=   1.0kbits/s speed=0.0122x elapsed=0:05:52.87    \nframe=  517 fps=1.5 q=48.0 size=       1KiB time=00:00:04.30 bitrate=   1.0kbits/s speed=0.0122x elapsed=0:05:53.43    \nframe=  521 fps=1.5 q=43.0 size=       1KiB time=00:00:04.33 bitrate=   1.0kbits/s speed=0.0122x elapsed=0:05:53.99    \nframe=  521 fps=1.5 q=43.0 size=       1KiB time=00:00:04.33 bitrate=   1.0kbits/s speed=0.0122x elapsed=0:05:54.53    \nframe=  521 fps=1.5 q=43.0 size=       1KiB time=00:00:04.33 bitrate=   1.0kbits/s speed=0.0122x elapsed=0:05:55.09    \nframe=  523 fps=1.5 q=50.0 size=       1KiB time=00:00:04.35 bitrate=   1.0kbits/s speed=0.0122x elapsed=0:05:55.64    \nframe=  525 fps=1.5 q=46.0 size=       1KiB time=00:00:04.36 bitrate=   1.0kbits/s speed=0.0123x elapsed=0:05:56.20    \nframe=  527 fps=1.5 q=48.0 size=       1KiB time=00:00:04.38 bitrate=   1.0kbits/s speed=0.0123x elapsed=0:05:56.77    \nframe=  529 fps=1.5 q=32.0 size=       1KiB time=00:00:04.40 bitrate=   1.0kbits/s speed=0.0123x elapsed=0:05:57.38    \nframe=  529 fps=1.5 q=32.0 size=       1KiB time=00:00:04.40 bitrate=   1.0kbits/s speed=0.0123x elapsed=0:05:57.95    \nframe=  531 fps=1.5 q=51.0 size=       1KiB time=00:00:04.41 bitrate=   1.0kbits/s speed=0.0123x elapsed=0:05:58.51    \nframe=  533 fps=1.5 q=48.0 size=       1KiB time=00:00:04.43 bitrate=   1.0kbits/s speed=0.0123x elapsed=0:05:59.09    \nframe=  533 fps=1.5 q=48.0 size=       1KiB time=00:00:04.43 bitrate=   1.0kbits/s speed=0.0123x elapsed=0:05:59.65    \nframe=  537 fps=1.5 q=43.0 size=       1KiB time=00:00:04.46 bitrate=   1.0kbits/s speed=0.0124x elapsed=0:06:00.21    \nframe=  537 fps=1.5 q=43.0 size=       1KiB time=00:00:04.46 bitrate=   1.0kbits/s speed=0.0124x elapsed=0:06:00.77    \nframe=  539 fps=1.5 q=50.0 size=       1KiB time=00:00:04.46 bitrate=   1.0kbits/s speed=0.0124x elapsed=0:06:01.31    \nframe=  541 fps=1.5 q=46.0 size=       1KiB time=00:00:04.50 bitrate=   1.0kbits/s speed=0.0124x elapsed=0:06:01.87    \nframe=  541 fps=1.5 q=46.0 size=       1KiB time=00:00:04.50 bitrate=   1.0kbits/s speed=0.0124x elapsed=0:06:02.44    \nframe=  545 fps=1.5 q=32.0 size=       1KiB time=00:00:04.53 bitrate=   1.0kbits/s speed=0.0125x elapsed=0:06:03.00    \nframe=  545 fps=1.5 q=32.0 size=       1KiB time=00:00:04.53 bitrate=   1.0kbits/s speed=0.0125x elapsed=0:06:03.55    \nframe=  549 fps=1.5 q=48.0 size=       1KiB time=00:00:04.56 bitrate=   1.0kbits/s speed=0.0125x elapsed=0:06:04.13    \nframe=  549 fps=1.5 q=48.0 size=       1KiB time=00:00:04.56 bitrate=   1.0kbits/s speed=0.0125x elapsed=0:06:04.68    \nframe=  549 fps=1.5 q=48.0 size=       1KiB time=00:00:04.56 bitrate=   1.0kbits/s speed=0.0125x elapsed=0:06:05.22    \nframe=  553 fps=1.5 q=43.0 size=       1KiB time=00:00:04.60 bitrate=   1.0kbits/s speed=0.0126x elapsed=0:06:05.78    \nframe=  553 fps=1.5 q=43.0 size=       1KiB time=00:00:04.60 bitrate=   1.0kbits/s speed=0.0126x elapsed=0:06:06.33    \nframe=  553 fps=1.5 q=43.0 size=       1KiB time=00:00:04.60 bitrate=   1.0kbits/s speed=0.0125x elapsed=0:06:06.91    \nframe=  553 fps=1.5 q=43.0 size=       1KiB time=00:00:04.60 bitrate=   1.0kbits/s speed=0.0125x elapsed=0:06:07.52    \nframe=  555 fps=1.5 q=50.0 size=       1KiB time=00:00:04.61 bitrate=   1.0kbits/s speed=0.0125x elapsed=0:06:08.10    \nframe=  557 fps=1.5 q=46.0 size=       1KiB time=00:00:04.63 bitrate=   1.0kbits/s speed=0.0126x elapsed=0:06:08.67    \nframe=  557 fps=1.5 q=46.0 size=       1KiB time=00:00:04.63 bitrate=   1.0kbits/s speed=0.0125x elapsed=0:06:09.24    \nframe=  559 fps=1.5 q=48.0 size=       1KiB time=00:00:04.65 bitrate=   1.0kbits/s speed=0.0126x elapsed=0:06:09.81    \nframe=  561 fps=1.5 q=32.0 size=       1KiB time=00:00:04.66 bitrate=   1.0kbits/s speed=0.0126x elapsed=0:06:10.40    \nframe=  563 fps=1.5 q=51.0 size=       1KiB time=00:00:04.66 bitrate=   1.0kbits/s speed=0.0126x elapsed=0:06:10.96    \nframe=  565 fps=1.5 q=48.0 size=       1KiB time=00:00:04.70 bitrate=   1.0kbits/s speed=0.0127x elapsed=0:06:11.50    \nframe=  565 fps=1.5 q=48.0 size=       1KiB time=00:00:04.70 bitrate=   1.0kbits/s speed=0.0126x elapsed=0:06:12.05    \nframe=  565 fps=1.5 q=48.0 size=       1KiB time=00:00:04.70 bitrate=   1.0kbits/s speed=0.0126x elapsed=0:06:12.65    \nframe=  567 fps=1.5 q=46.0 size=       1KiB time=00:00:04.71 bitrate=   0.9kbits/s speed=0.0126x elapsed=0:06:13.23    \nframe=  569 fps=1.5 q=42.0 size=       1KiB time=00:00:04.73 bitrate=   0.9kbits/s speed=0.0127x elapsed=0:06:13.82    \nframe=  569 fps=1.5 q=42.0 size=       1KiB time=00:00:04.73 bitrate=   0.9kbits/s speed=0.0126x elapsed=0:06:14.40    \nframe=  569 fps=1.5 q=42.0 size=       1KiB time=00:00:04.73 bitrate=   0.9kbits/s speed=0.0126x elapsed=0:06:14.98    \nframe=  569 fps=1.5 q=42.0 size=       1KiB time=00:00:04.73 bitrate=   0.9kbits/s speed=0.0126x elapsed=0:06:15.58    \nframe=  571 fps=1.5 q=49.0 size=       1KiB time=00:00:04.75 bitrate=   0.9kbits/s speed=0.0126x elapsed=0:06:16.17    \nframe=  573 fps=1.5 q=46.0 size=       1KiB time=00:00:04.76 bitrate=   0.9kbits/s speed=0.0127x elapsed=0:06:16.75    \nframe=  573 fps=1.5 q=46.0 size=       1KiB time=00:00:04.76 bitrate=   0.9kbits/s speed=0.0126x elapsed=0:06:17.32    \nframe=  577 fps=1.5 q=31.0 size=       1KiB time=00:00:04.78 bitrate=   0.9kbits/s speed=0.0127x elapsed=0:06:17.89    \nframe=  577 fps=1.5 q=31.0 size=       1KiB time=00:00:04.80 bitrate=   0.9kbits/s speed=0.0127x elapsed=0:06:18.45    \nframe=  581 fps=1.5 q=51.0 size=       1KiB time=00:00:04.83 bitrate=   0.9kbits/s speed=0.0128x elapsed=0:06:18.99    \nframe=  581 fps=1.5 q=51.0 size=       1KiB time=00:00:04.83 bitrate=   0.9kbits/s speed=0.0127x elapsed=0:06:19.54    \nframe=  583 fps=1.5 q=52.0 size=       1KiB time=00:00:04.85 bitrate=   0.9kbits/s speed=0.0128x elapsed=0:06:20.10    \nframe=  585 fps=1.5 q=48.0 size=       1KiB time=00:00:04.86 bitrate=   0.9kbits/s speed=0.0128x elapsed=0:06:20.65    \nframe=  585 fps=1.5 q=48.0 size=       1KiB time=00:00:04.86 bitrate=   0.9kbits/s speed=0.0128x elapsed=0:06:21.24    \nframe=  585 fps=1.5 q=48.0 size=       1KiB time=00:00:04.86 bitrate=   0.9kbits/s speed=0.0127x elapsed=0:06:21.81    \nframe=  585 fps=1.5 q=48.0 size=       1KiB time=00:00:04.86 bitrate=   0.9kbits/s speed=0.0127x elapsed=0:06:22.38    \nframe=  587 fps=1.5 q=52.0 size=       1KiB time=00:00:04.88 bitrate=   0.9kbits/s speed=0.0128x elapsed=0:06:22.95    \nframe=  589 fps=1.5 q=52.0 size=       1KiB time=00:00:04.90 bitrate=   0.9kbits/s speed=0.0128x elapsed=0:06:23.53    \nframe=  589 fps=1.5 q=52.0 size=       1KiB time=00:00:04.90 bitrate=   0.9kbits/s speed=0.0128x elapsed=0:06:24.10    \n[out#0/matroska @ 00000230ba6f90c0] video:1395KiB audio:0KiB subtitle:0KiB other streams:0KiB global headers:0KiB muxing overhead: 0.233314%\nframe=  600 fps=1.6 q=52.0 Lsize=    1399KiB time=00:00:04.99 bitrate=2295.5kbits/s speed=0.013x elapsed=0:06:24.66    \n",
  "seconds": 386.0178487300873,
  "probe_out": {}
}